<svg width="156" height="115" viewBox="0 0 156 115" fill="none" xmlns="http://www.w3.org/2000/svg">
<circle cx="66" cy="64" r="51" fill="#E58B24"/>
<path d="M99 42L58.2857 83L42 66.6" stroke="white" stroke-width="5" stroke-linecap="round" stroke-linejoin="round"/>
<path d="M31.6879 89.2298C31.419 89.1151 31.2527 88.8414 31.2753 88.5501C31.5929 84.4724 31.0762 83.1878 28.025 80.4646C27.8073 80.2698 27.7375 79.9576 27.8522 79.6885C27.9669 79.4196 28.2408 79.2537 28.5319 79.2762C32.6095 79.5937 33.8941 79.0771 36.6173 76.0258C36.8121 75.8076 37.1245 75.738 37.3936 75.8528C37.6627 75.9676 37.8282 76.241 37.806 76.5328C37.4886 80.6102 38.0053 81.8948 41.0564 84.6183C41.2741 84.8128 41.3439 85.1253 41.2292 85.3942C41.1144 85.6633 40.8407 85.8289 40.5495 85.8067C36.4717 85.4895 35.1873 86.0056 32.4641 89.0571C32.2689 89.2749 31.9567 89.3445 31.6879 89.2298Z" fill="white"/>
<path d="M127 48C128.297 46.3816 132.541 44.1408 136.668 46.1327C140.873 48.1625 142.642 46.3361 144.096 42.2734C146.1 36.6713 152.703 36.9203 154 41.0285" stroke="url(#paint0_linear_1373_34123)" stroke-width="3" stroke-linecap="round" stroke-linejoin="round"/>
<path d="M24.5491 18.5608L20.213 13.8946L21.5989 7.67748C21.6761 7.3305 21.5497 6.96967 21.273 6.74693C20.9963 6.5242 20.617 6.47762 20.2944 6.62739L14.5167 9.30922L9.03192 6.06969C8.36735 5.67718 7.53749 6.21883 7.63027 6.98582L8.39526 13.3096L3.61941 17.525C3.04084 18.0359 3.29925 18.993 4.05755 19.1411L10.3082 20.3678C13.068 26.7342 12.8658 26.3697 13.1125 26.5683C13.2634 26.6897 13.4512 26.7636 13.6521 26.7735C14.007 26.7909 14.3412 26.6057 14.5141 26.2953L17.6121 20.7293L23.9532 20.1258C24.7217 20.0531 25.0752 19.1272 24.5491 18.5608Z" fill="#FFA92C"/>
<path d="M11.6007 18.0045L10.8357 11.6806C10.743 10.9145 11.572 10.3717 12.2373 10.7645L17.7221 14.004L20.4733 12.727L21.5989 7.67748C21.6761 7.3305 21.5497 6.96967 21.273 6.74693C20.9963 6.5242 20.617 6.47762 20.2944 6.62738L14.5167 9.30922L9.03192 6.06969C8.36735 5.67718 7.53749 6.21883 7.63027 6.98582L8.39526 13.3096L3.61941 17.525C3.04084 18.0359 3.29925 18.993 4.05755 19.1411L9.17475 20.1453L11.6007 18.0045Z" fill="#FF8828"/>
<defs>
<linearGradient id="paint0_linear_1373_34123" x1="120.971" y1="41.6165" x2="124.778" y2="55.8283" gradientUnits="userSpaceOnUse">
<stop stop-color="#FC58B3"/>
<stop offset="1" stop-color="#FEAE68"/>
</linearGradient>
</defs>
</svg>
