<svg width="448" height="228" viewBox="0 0 448 228" fill="none" xmlns="http://www.w3.org/2000/svg">
<g clip-path="url(#clip0_1373_24153)">
<path d="M190.838 71.6116C190.767 71.6096 190.697 71.5855 190.64 71.5426C190.583 71.4997 190.54 71.4402 190.518 71.3722C190.264 70.6141 190.038 69.8426 189.824 69.0578C189.812 69.015 189.809 68.9702 189.814 68.9261C189.82 68.882 189.835 68.8395 189.857 68.8011C189.879 68.7626 189.909 68.7291 189.945 68.7023C189.98 68.6756 190.021 68.6563 190.064 68.6455C190.153 68.6209 190.247 68.6323 190.327 68.6772C190.407 68.7221 190.466 68.7968 190.491 68.8849C190.691 69.6431 190.932 70.4145 191.172 71.1594C191.197 71.2476 191.188 71.3422 191.146 71.4239C191.104 71.5055 191.032 71.568 190.945 71.5983L190.838 71.6116Z" fill="#55C1F2"/>
<path d="M321.34 140.327C321.261 140.325 321.184 140.296 321.124 140.246C321.063 140.195 321.022 140.125 321.006 140.047C320.997 140.004 320.996 139.958 321.004 139.914C321.013 139.87 321.03 139.828 321.055 139.791C321.08 139.754 321.112 139.722 321.149 139.697C321.187 139.673 321.229 139.656 321.273 139.648C322.848 139.342 324.422 139.05 325.997 138.73C326.087 138.715 326.179 138.736 326.254 138.788C326.329 138.84 326.381 138.92 326.397 139.01C326.406 139.054 326.407 139.099 326.399 139.143C326.391 139.187 326.374 139.229 326.349 139.266C326.324 139.303 326.292 139.335 326.254 139.36C326.216 139.384 326.174 139.401 326.13 139.409L321.407 140.313L321.34 140.327ZM330.773 138.464C330.695 138.461 330.619 138.431 330.559 138.381C330.499 138.33 330.457 138.262 330.44 138.185C330.43 138.141 330.429 138.096 330.438 138.052C330.446 138.008 330.463 137.966 330.488 137.929C330.513 137.892 330.545 137.86 330.582 137.835C330.62 137.811 330.662 137.794 330.706 137.786L335.403 136.775C335.486 136.768 335.568 136.791 335.636 136.839C335.703 136.888 335.751 136.959 335.77 137.039C335.79 137.12 335.779 137.204 335.741 137.278C335.703 137.352 335.64 137.409 335.563 137.44C333.989 137.786 332.414 138.132 330.853 138.451L330.773 138.464ZM340.113 136.363C340.03 136.359 339.952 136.327 339.891 136.271C339.831 136.215 339.792 136.139 339.783 136.058C339.773 135.976 339.793 135.894 339.839 135.825C339.885 135.757 339.953 135.707 340.033 135.684C341.647 135.299 343.222 134.9 344.689 134.514C344.732 134.503 344.777 134.5 344.821 134.506C344.865 134.512 344.907 134.526 344.946 134.548C344.984 134.571 345.018 134.6 345.045 134.635C345.072 134.671 345.092 134.711 345.103 134.753C345.114 134.796 345.117 134.841 345.111 134.885C345.105 134.929 345.091 134.971 345.069 135.009C345.046 135.047 345.017 135.081 344.981 135.108C344.946 135.135 344.906 135.154 344.863 135.166C343.382 135.565 341.821 135.964 340.193 136.35L340.113 136.363ZM349.453 133.889C349.379 133.888 349.308 133.864 349.248 133.821C349.189 133.778 349.144 133.718 349.119 133.649C349.094 133.561 349.106 133.467 349.151 133.387C349.196 133.307 349.271 133.249 349.359 133.224C350.907 132.772 352.455 132.293 353.949 131.814C354.034 131.788 354.126 131.796 354.205 131.835C354.285 131.875 354.346 131.943 354.376 132.027C354.402 132.115 354.392 132.21 354.35 132.291C354.308 132.373 354.236 132.435 354.149 132.466C352.655 132.944 351.107 133.423 349.546 133.876L349.453 133.889ZM358.606 130.923C358.533 130.924 358.462 130.903 358.402 130.863C358.343 130.822 358.297 130.764 358.272 130.697C358.246 130.61 358.253 130.517 358.293 130.435C358.332 130.354 358.401 130.291 358.485 130.258C360.02 129.712 361.528 129.14 362.969 128.555C363.01 128.538 363.054 128.529 363.098 128.529C363.143 128.529 363.187 128.538 363.228 128.556C363.269 128.573 363.306 128.598 363.337 128.63C363.368 128.662 363.393 128.7 363.409 128.741C363.444 128.826 363.444 128.921 363.409 129.006C363.374 129.091 363.307 129.158 363.222 129.194C361.768 129.779 360.26 130.351 358.712 130.909L358.606 130.923ZM367.518 127.331C367.443 127.326 367.372 127.296 367.315 127.246C367.259 127.196 367.22 127.129 367.205 127.056C367.19 126.982 367.199 126.905 367.232 126.838C367.264 126.77 367.318 126.714 367.385 126.68L369.706 125.589L371.708 124.618C371.747 124.598 371.79 124.586 371.834 124.582C371.879 124.579 371.923 124.584 371.965 124.597C372.007 124.611 372.046 124.633 372.08 124.661C372.114 124.69 372.141 124.725 372.161 124.764C372.182 124.804 372.194 124.846 372.197 124.89C372.201 124.934 372.196 124.979 372.182 125.021C372.168 125.063 372.147 125.102 372.118 125.135C372.089 125.169 372.054 125.196 372.015 125.217C371.348 125.562 370.68 125.895 370 126.214C369.32 126.533 368.439 126.946 367.665 127.292C367.624 127.315 367.579 127.328 367.532 127.331H367.518ZM376.098 122.982C376.037 122.982 375.979 122.966 375.927 122.936C375.875 122.905 375.833 122.862 375.804 122.809C375.76 122.731 375.747 122.639 375.77 122.552C375.792 122.465 375.847 122.39 375.924 122.343C377.258 121.545 378.699 120.721 380.034 119.869C380.07 119.845 380.112 119.827 380.155 119.819C380.198 119.81 380.243 119.81 380.287 119.818C380.33 119.827 380.371 119.844 380.408 119.869C380.445 119.894 380.476 119.926 380.5 119.963C380.525 120.001 380.542 120.044 380.55 120.089C380.558 120.134 380.557 120.18 380.547 120.224C380.537 120.269 380.518 120.311 380.492 120.348C380.466 120.385 380.432 120.417 380.394 120.441C379.06 121.306 377.725 122.144 376.271 122.942C376.221 122.966 376.166 122.979 376.111 122.982H376.098ZM384.196 117.795C384.141 117.794 384.087 117.78 384.039 117.755C383.99 117.73 383.948 117.693 383.916 117.648C383.889 117.612 383.868 117.571 383.857 117.526C383.846 117.482 383.845 117.436 383.852 117.391C383.86 117.347 383.876 117.304 383.901 117.266C383.926 117.227 383.958 117.195 383.996 117.169C385.331 116.238 386.571 115.267 387.799 114.27C387.832 114.232 387.874 114.202 387.92 114.182C387.967 114.161 388.017 114.152 388.067 114.153C388.118 114.154 388.168 114.166 388.213 114.189C388.258 114.211 388.298 114.243 388.33 114.283C388.361 114.322 388.384 114.368 388.396 114.417C388.408 114.466 388.409 114.517 388.399 114.566C388.389 114.616 388.369 114.663 388.339 114.703C388.309 114.744 388.27 114.778 388.226 114.802C386.998 115.799 385.704 116.784 384.397 117.728C384.341 117.765 384.277 117.788 384.21 117.795H384.196ZM391.655 111.756C391.606 111.755 391.559 111.744 391.515 111.724C391.471 111.703 391.432 111.673 391.401 111.636C391.369 111.605 391.343 111.568 391.326 111.527C391.308 111.486 391.299 111.441 391.299 111.397C391.299 111.352 391.308 111.308 391.326 111.267C391.343 111.225 391.369 111.188 391.401 111.157C392.575 110.08 393.736 108.963 394.83 107.832C394.861 107.8 394.899 107.774 394.94 107.757C394.981 107.739 395.026 107.73 395.071 107.73C395.115 107.73 395.16 107.739 395.201 107.757C395.242 107.774 395.28 107.8 395.311 107.832C395.343 107.863 395.369 107.9 395.386 107.941C395.404 107.982 395.413 108.027 395.413 108.071C395.413 108.116 395.404 108.16 395.386 108.201C395.369 108.243 395.343 108.28 395.311 108.311C394.203 109.455 393.042 110.585 391.855 111.676C391.8 111.718 391.736 111.745 391.668 111.756H391.655ZM398.326 104.839C398.244 104.839 398.163 104.811 398.099 104.759C398.067 104.728 398.041 104.691 398.024 104.65C398.006 104.609 397.997 104.565 397.997 104.52C397.997 104.475 398.006 104.431 398.024 104.39C398.041 104.349 398.067 104.312 398.099 104.281C399.127 103.057 400.114 101.793 401.048 100.516C401.073 100.48 401.105 100.45 401.143 100.426C401.18 100.403 401.221 100.387 401.265 100.379C401.308 100.372 401.353 100.373 401.396 100.383C401.439 100.393 401.479 100.411 401.515 100.437C401.553 100.462 401.585 100.495 401.61 100.533C401.635 100.571 401.652 100.614 401.659 100.659C401.667 100.704 401.665 100.75 401.654 100.794C401.643 100.838 401.623 100.879 401.595 100.915C400.661 102.246 399.66 103.483 398.62 104.72C398.586 104.76 398.543 104.792 398.494 104.813C398.445 104.834 398.392 104.843 398.339 104.839H398.326ZM403.943 97.0714C403.887 97.0888 403.826 97.0888 403.77 97.0714C403.693 97.0245 403.638 96.9497 403.615 96.8628C403.593 96.776 403.605 96.6839 403.65 96.6059C404.49 95.2758 405.278 93.8392 405.985 92.4426C406.003 92.4016 406.03 92.365 406.063 92.335C406.097 92.305 406.136 92.2823 406.179 92.2685C406.222 92.2547 406.267 92.2501 406.311 92.2549C406.356 92.2596 406.399 92.2738 406.438 92.2963C406.479 92.3148 406.516 92.3414 406.546 92.3744C406.577 92.4074 406.6 92.4462 406.615 92.4884C406.63 92.5307 406.636 92.5755 406.633 92.6202C406.63 92.6649 406.619 92.7085 406.598 92.7486C405.878 94.1585 405.091 95.5817 404.237 96.965C404.202 97.0033 404.158 97.0329 404.109 97.0514C404.061 97.0698 404.008 97.0767 403.957 97.0714H403.943ZM408.28 88.5188H408.146C408.105 88.5027 408.067 88.4785 408.035 88.4476C408.003 88.4166 407.977 88.3796 407.96 88.3387C407.942 88.2977 407.933 88.2538 407.933 88.2093C407.933 88.1648 407.942 88.1208 407.959 88.0799C408.293 87.2153 408.626 86.3507 408.92 85.4995C409.133 84.861 409.347 84.1693 409.534 83.5841C409.561 83.4979 409.621 83.4253 409.7 83.3809C409.779 83.3365 409.872 83.3236 409.961 83.3447C410.049 83.3695 410.124 83.4282 410.169 83.508C410.214 83.5878 410.225 83.6821 410.201 83.7703C410.005 84.4354 409.792 85.0871 409.56 85.7256C409.267 86.5901 408.933 87.468 408.586 88.3858C408.553 88.4309 408.508 88.4668 408.457 88.49C408.406 88.5133 408.349 88.5232 408.293 88.5188H408.28ZM411.055 79.341H410.975C410.887 79.319 410.811 79.2635 410.764 79.1864C410.716 79.1093 410.701 79.0168 410.721 78.9287C411.041 77.3858 411.295 75.803 411.482 74.2334C411.485 74.1885 411.497 74.1446 411.518 74.1046C411.539 74.0646 411.568 74.0292 411.603 74.0006C411.638 73.972 411.678 73.9507 411.721 73.9382C411.765 73.9256 411.81 73.922 411.855 73.9275C411.946 73.9407 412.028 73.988 412.086 74.0597C412.143 74.1314 412.17 74.2221 412.162 74.3132C411.975 75.8961 411.709 77.5055 411.388 79.075C411.376 79.1529 411.338 79.2243 411.28 79.2775C411.222 79.3307 411.147 79.3625 411.068 79.3677L411.055 79.341ZM412.176 69.8308C412.085 69.824 412 69.7833 411.938 69.7166C411.876 69.65 411.842 69.5624 411.842 69.4716C411.842 68.913 411.842 68.3543 411.842 67.7957C411.842 66.7715 411.842 65.734 411.749 64.7098C411.747 64.6644 411.754 64.6191 411.77 64.5765C411.786 64.5338 411.81 64.4947 411.841 64.4613C411.872 64.428 411.909 64.401 411.95 64.3821C411.992 64.3631 412.037 64.3524 412.082 64.3507C412.127 64.3471 412.172 64.3526 412.215 64.3668C412.258 64.3811 412.297 64.4038 412.331 64.4336C412.364 64.4635 412.392 64.4998 412.411 64.5404C412.43 64.581 412.441 64.6251 412.442 64.6699C412.442 65.7074 412.522 66.7582 412.522 67.7957C412.522 68.3676 412.522 68.9263 412.522 69.4982C412.522 69.5864 412.487 69.671 412.425 69.7334C412.362 69.7957 412.277 69.8308 412.189 69.8308H412.176ZM189.076 64.63C188.994 64.6344 188.913 64.6082 188.849 64.5567C188.785 64.5051 188.742 64.4317 188.729 64.3507C188.457 62.7653 188.265 61.1671 188.156 59.5623C188.15 59.5176 188.154 59.4722 188.166 59.4289C188.179 59.3856 188.2 59.3453 188.229 59.3105C188.258 59.2756 188.293 59.247 188.333 59.2263C188.373 59.2055 188.417 59.1932 188.462 59.1899C188.508 59.1863 188.554 59.1916 188.597 59.2057C188.641 59.2198 188.681 59.2424 188.716 59.272C188.751 59.3017 188.779 59.3379 188.8 59.3786C188.82 59.4193 188.833 59.4637 188.836 59.5091C188.956 61.092 189.143 62.6881 189.41 64.231C189.425 64.3209 189.405 64.4133 189.352 64.488C189.3 64.5628 189.22 64.6138 189.13 64.63H189.076ZM411.589 60.2673C411.506 60.2621 411.428 60.2288 411.367 60.1732C411.307 60.1175 411.267 60.0427 411.255 59.9614C411.028 58.4051 410.735 56.8223 410.374 55.2794C410.355 55.2327 410.346 55.1823 410.348 55.1318C410.35 55.0813 410.364 55.0319 410.387 54.9871C410.411 54.9423 410.444 54.9031 410.484 54.8724C410.524 54.8417 410.571 54.8201 410.62 54.8093C410.67 54.7984 410.721 54.7985 410.771 54.8096C410.82 54.8206 410.867 54.8423 410.907 54.8732C410.947 54.904 410.98 54.9433 411.003 54.9882C411.026 55.0331 411.039 55.0825 411.041 55.133C411.402 56.6893 411.709 58.2854 411.935 59.8682C411.947 59.958 411.922 60.0487 411.868 60.1209C411.813 60.193 411.732 60.2408 411.642 60.254L411.589 60.2673ZM188.356 55.0799C188.264 55.0799 188.175 55.0434 188.11 54.9786C188.045 54.9137 188.009 54.8257 188.009 54.734C188.009 53.1379 188.142 51.5152 188.316 49.919C188.319 49.8741 188.331 49.8302 188.352 49.7902C188.373 49.7502 188.402 49.7148 188.437 49.6862C188.472 49.6576 188.512 49.6363 188.555 49.6238C188.599 49.6112 188.644 49.6076 188.689 49.6131C188.779 49.6232 188.861 49.6677 188.918 49.7372C188.976 49.8068 189.004 49.8959 188.996 49.9855C188.823 51.5684 188.729 53.1645 188.703 54.7473C188.7 54.8282 188.67 54.9058 188.616 54.9666C188.563 55.0273 188.489 55.0674 188.409 55.0799H188.356ZM409.4 50.9299C409.33 50.9308 409.261 50.9094 409.203 50.8687C409.146 50.8281 409.103 50.7704 409.08 50.7038C408.933 50.2648 408.787 49.8392 408.626 49.3737C408.24 48.2697 407.813 47.2056 407.292 46.208C407.259 46.1247 407.259 46.032 407.291 45.9484C407.323 45.8647 407.385 45.796 407.466 45.7558C407.549 45.7197 407.643 45.7176 407.728 45.7499C407.813 45.7822 407.881 45.8464 407.919 45.9287C408.373 46.9396 408.813 48.0303 409.254 49.1343C409.4 49.5732 409.56 50.0121 409.707 50.4644C409.733 50.5526 409.724 50.6472 409.681 50.7288C409.639 50.8105 409.567 50.8729 409.48 50.9033L409.4 50.9299ZM189.383 45.6095C189.339 45.6016 189.297 45.5848 189.259 45.5603C189.221 45.5357 189.189 45.5039 189.164 45.4666C189.139 45.4293 189.122 45.3874 189.114 45.3434C189.106 45.2994 189.107 45.2542 189.116 45.2104C189.423 43.6409 189.81 42.0581 190.264 40.5285C190.292 40.4447 190.352 40.375 190.43 40.3338C190.509 40.2925 190.6 40.2828 190.686 40.3067C190.771 40.3305 190.844 40.3861 190.89 40.462C190.935 40.5379 190.95 40.6283 190.931 40.7147C190.477 42.231 190.09 43.7872 189.783 45.3434C189.757 45.4121 189.709 45.4703 189.646 45.5088C189.583 45.5473 189.51 45.564 189.436 45.5563L189.383 45.6095ZM405.451 42.2576C405.392 42.2591 405.334 42.2451 405.283 42.2171C405.231 42.1891 405.188 42.148 405.157 42.098C404.337 40.7467 403.399 39.4693 402.355 38.2806C402.323 38.2495 402.298 38.2123 402.28 38.1712C402.262 38.1301 402.253 38.0858 402.253 38.0411C402.253 37.9964 402.262 37.9522 402.28 37.9111C402.298 37.8699 402.323 37.8327 402.355 37.8017C402.42 37.7399 402.506 37.7054 402.596 37.7054C402.685 37.7054 402.771 37.7399 402.836 37.8017C403.906 39.0213 404.87 40.3296 405.718 41.7122C405.763 41.7886 405.778 41.8796 405.758 41.9663C405.738 42.053 405.685 42.1287 405.611 42.1778C405.577 42.1925 405.541 42.2015 405.504 42.2044L405.451 42.2576ZM192.145 36.3652H192.012C191.97 36.3491 191.932 36.3249 191.9 36.294C191.868 36.263 191.843 36.226 191.825 36.1851C191.808 36.1441 191.799 36.1002 191.799 36.0557C191.799 36.0113 191.807 35.9672 191.825 35.9263C192.412 34.4232 193.079 32.9468 193.799 31.5103C193.819 31.4707 193.847 31.4354 193.88 31.4065C193.914 31.3776 193.953 31.3557 193.995 31.3421C194.038 31.3284 194.082 31.3233 194.126 31.3271C194.171 31.3309 194.214 31.3434 194.253 31.364C194.294 31.3822 194.331 31.4088 194.361 31.4422C194.391 31.4755 194.414 31.5148 194.428 31.5575C194.442 31.6001 194.446 31.6452 194.441 31.6898C194.437 31.7344 194.422 31.7775 194.4 31.8162C193.693 33.2261 193.066 34.6893 192.452 36.1657C192.429 36.2274 192.387 36.2802 192.332 36.3161C192.276 36.352 192.211 36.3693 192.145 36.3652ZM399.14 35.0351C399.064 35.0316 398.991 35.0087 398.927 34.9686C397.672 34.0149 396.332 33.1779 394.924 32.468C394.882 32.4484 394.845 32.4204 394.815 32.3858C394.785 32.3513 394.762 32.3109 394.748 32.2672C394.735 32.2235 394.73 32.1774 394.735 32.1318C394.74 32.0863 394.754 32.0422 394.777 32.0024C394.795 31.9615 394.822 31.9248 394.855 31.8948C394.889 31.8648 394.928 31.8421 394.971 31.8283C395.014 31.8145 395.059 31.8099 395.104 31.8147C395.149 31.8195 395.192 31.8336 395.231 31.8561C396.684 32.5857 398.069 33.4449 399.367 34.4232C399.399 34.4543 399.425 34.4914 399.442 34.5326C399.46 34.5737 399.469 34.618 399.469 34.6627C399.469 34.7074 399.46 34.7516 399.442 34.7927C399.425 34.8339 399.399 34.8711 399.367 34.9021C399.348 34.9496 399.317 34.9915 399.277 35.024C399.238 35.0565 399.19 35.0787 399.14 35.0883V35.0351ZM390.627 30.659H390.521C389.011 30.1355 387.474 29.6915 385.918 29.3289C385.83 29.3069 385.754 29.2513 385.707 29.1743C385.659 29.0972 385.644 29.0047 385.664 28.9166C385.674 28.8737 385.691 28.8331 385.717 28.7971C385.742 28.7612 385.774 28.7306 385.811 28.7071C385.849 28.6836 385.89 28.6677 385.934 28.6602C385.977 28.6528 386.021 28.6541 386.064 28.6639C387.649 29.022 389.212 29.4661 390.748 29.994C390.831 30.0242 390.9 30.0852 390.939 30.1644C390.979 30.2435 390.987 30.3349 390.961 30.4196C390.946 30.4985 390.905 30.5703 390.845 30.6233C390.784 30.6763 390.708 30.7076 390.627 30.7122V30.659ZM381.288 28.5176C379.86 28.3047 378.312 28.1185 376.538 27.9323C376.491 27.9292 376.446 27.9165 376.405 27.8949C376.364 27.8734 376.328 27.8435 376.299 27.8071C376.27 27.7708 376.249 27.7289 376.237 27.684C376.226 27.6391 376.223 27.5923 376.231 27.5466C376.234 27.502 376.246 27.4587 376.267 27.4192C376.288 27.3798 376.317 27.3451 376.353 27.3176C376.388 27.29 376.428 27.2701 376.472 27.2591C376.515 27.2482 376.56 27.2464 376.605 27.254C378.392 27.4402 379.954 27.6264 381.395 27.8392C381.485 27.8555 381.567 27.906 381.621 27.9803C381.676 28.0545 381.7 28.1469 381.688 28.2382C381.687 28.2952 381.673 28.3511 381.646 28.4013C381.619 28.4515 381.58 28.4947 381.533 28.5272C381.486 28.5596 381.432 28.5805 381.376 28.5881C381.319 28.5957 381.262 28.5897 381.208 28.5708L381.288 28.5176ZM196.481 27.7461C196.42 27.7638 196.355 27.7638 196.294 27.7461C196.22 27.6971 196.167 27.6213 196.148 27.5346C196.128 27.4479 196.142 27.3569 196.188 27.2805C197.055 25.9504 197.976 24.6203 198.95 23.2902C198.973 23.2464 199.006 23.2082 199.046 23.1782C199.086 23.1482 199.132 23.1273 199.181 23.1167C199.23 23.1061 199.281 23.1062 199.329 23.1169C199.378 23.1276 199.424 23.1487 199.464 23.1788C199.504 23.2088 199.537 23.2471 199.56 23.291C199.584 23.3349 199.598 23.3834 199.601 23.4332C199.604 23.4829 199.596 23.5328 199.578 23.5792C199.56 23.6257 199.532 23.6678 199.497 23.7025C198.536 24.9529 197.615 26.2697 196.828 27.6131C196.796 27.6819 196.742 27.7378 196.674 27.7717C196.606 27.8055 196.529 27.8153 196.455 27.7993L196.481 27.7461ZM371.695 27.4934L370.987 27.4269L366.891 27.0544C366.8 27.0412 366.718 26.9939 366.661 26.9222C366.604 26.8506 366.577 26.7599 366.584 26.6687C366.597 26.5806 366.643 26.5005 366.712 26.444C366.781 26.3875 366.869 26.3585 366.958 26.3628L371.041 26.7485H371.748C371.793 26.7519 371.838 26.7642 371.879 26.7848C371.92 26.8053 371.956 26.8337 371.986 26.8683C372.015 26.9029 372.038 26.9431 372.052 26.9864C372.066 27.0298 372.072 27.0755 372.068 27.1209C372.07 27.1703 372.062 27.2196 372.043 27.2656C372.025 27.3117 371.998 27.3535 371.963 27.3884C371.928 27.4234 371.886 27.4508 371.84 27.4688C371.793 27.4869 371.744 27.4952 371.695 27.4934ZM362.128 26.4958C360.567 26.283 358.966 26.0436 357.365 25.7775C357.276 25.7583 357.198 25.7065 357.146 25.6326C357.094 25.5587 357.072 25.4679 357.084 25.3785C357.101 25.2887 357.152 25.209 357.227 25.1567C357.302 25.1043 357.395 25.0837 357.485 25.0992C359.072 25.3652 360.674 25.6046 362.221 25.8174C362.3 25.8331 362.371 25.8754 362.422 25.9372C362.473 25.9991 362.501 26.0766 362.501 26.1566C362.501 26.2366 362.473 26.3141 362.422 26.376C362.371 26.4378 362.3 26.4802 362.221 26.4958H362.128ZM352.641 24.8997H352.575C351.04 24.5937 349.453 24.2479 347.865 23.8755C347.82 23.866 347.778 23.8478 347.74 23.8219C347.702 23.796 347.67 23.763 347.645 23.7246C347.621 23.6863 347.604 23.6435 347.595 23.5986C347.587 23.5537 347.588 23.5077 347.598 23.4631C347.623 23.3772 347.679 23.3037 347.756 23.257C347.832 23.2102 347.923 23.1936 348.012 23.2104C349.599 23.5828 351.187 23.9154 352.708 24.2346C352.752 24.2425 352.795 24.2592 352.832 24.2838C352.87 24.3083 352.902 24.3402 352.927 24.3774C352.952 24.4147 352.969 24.4566 352.977 24.5006C352.985 24.5447 352.985 24.5899 352.975 24.6336C352.963 24.7136 352.922 24.7867 352.861 24.8402C352.8 24.8936 352.723 24.9241 352.641 24.9263V24.8997ZM343.302 22.7183H343.222C341.714 22.3192 340.153 21.9069 338.565 21.3882C338.478 21.3635 338.405 21.3055 338.361 21.2269C338.318 21.1483 338.307 21.0556 338.332 20.9692C338.356 20.8828 338.415 20.8097 338.493 20.766C338.572 20.7224 338.665 20.7117 338.752 20.7364C340.326 21.1753 341.887 21.601 343.395 21.9867C343.439 21.9957 343.481 22.014 343.518 22.0403C343.555 22.0665 343.585 22.1003 343.608 22.1392C343.631 22.1781 343.645 22.2214 343.65 22.2662C343.654 22.311 343.649 22.3563 343.635 22.399C343.638 22.4474 343.629 22.4956 343.611 22.5404C343.593 22.5853 343.565 22.6255 343.529 22.6585C343.493 22.6914 343.451 22.7162 343.405 22.7311C343.359 22.746 343.31 22.7507 343.262 22.7449L343.302 22.7183ZM202.352 20.1778C202.31 20.1786 202.268 20.1708 202.229 20.1548C202.19 20.1388 202.154 20.1149 202.125 20.0846C202.093 20.0536 202.067 20.0164 202.05 19.9753C202.032 19.9342 202.023 19.8899 202.023 19.8452C202.023 19.8005 202.032 19.7563 202.05 19.7152C202.067 19.674 202.093 19.6368 202.125 19.6058C203.219 18.4353 204.393 17.3047 205.594 16.2406C205.626 16.2081 205.665 16.1822 205.707 16.1645C205.75 16.1469 205.795 16.1378 205.841 16.1378C205.887 16.1378 205.932 16.1469 205.975 16.1645C206.017 16.1822 206.056 16.2081 206.088 16.2406C206.15 16.305 206.184 16.3908 206.184 16.4801C206.184 16.5693 206.15 16.6551 206.088 16.7195C204.887 17.7836 203.74 18.9009 202.659 20.0447C202.622 20.1011 202.57 20.146 202.508 20.1742C202.447 20.2024 202.379 20.2129 202.312 20.2044L202.352 20.1778ZM334.042 20.1778H333.935L329.332 18.7679C329.284 18.7589 329.238 18.7396 329.197 18.7114C329.156 18.6833 329.122 18.6468 329.097 18.6044C329.072 18.562 329.056 18.5148 329.051 18.4658C329.045 18.4169 329.05 18.3673 329.066 18.3205C329.081 18.2736 329.106 18.2306 329.14 18.1943C329.173 18.158 329.214 18.1291 329.259 18.1098C329.305 18.0904 329.354 18.081 329.403 18.0821C329.453 18.0832 329.501 18.0948 329.546 18.1161C331.067 18.5949 332.601 19.0605 334.135 19.4462C334.179 19.4583 334.22 19.4791 334.255 19.5074C334.29 19.5356 334.319 19.5707 334.34 19.6105C334.362 19.6503 334.375 19.694 334.378 19.7389C334.382 19.7839 334.377 19.8291 334.362 19.8718C334.359 19.9151 334.347 19.9572 334.327 19.9956C334.307 20.034 334.279 20.0679 334.245 20.0953C334.212 20.1227 334.173 20.143 334.131 20.1549C334.089 20.1667 334.045 20.17 334.002 20.1645L334.042 20.1778ZM324.849 17.3047H324.742L320.179 15.815C320.092 15.7846 320.02 15.7222 319.978 15.6406C319.936 15.5589 319.927 15.4643 319.952 15.3761C319.983 15.2898 320.046 15.219 320.129 15.1791C320.211 15.1392 320.306 15.1335 320.393 15.1632L324.956 16.653C325.043 16.6834 325.115 16.7458 325.157 16.8274C325.199 16.9091 325.208 17.0037 325.183 17.0919C325.151 17.1616 325.098 17.2191 325.03 17.2552C324.962 17.2913 324.885 17.304 324.809 17.2914L324.849 17.3047ZM315.71 14.312H315.603L311.04 12.7957C310.997 12.7821 310.958 12.7603 310.924 12.7315C310.891 12.7026 310.863 12.6673 310.843 12.6277C310.823 12.588 310.811 12.5448 310.808 12.5005C310.806 12.4563 310.812 12.4119 310.826 12.37C310.838 12.3267 310.859 12.2863 310.887 12.2516C310.916 12.2169 310.952 12.1885 310.992 12.1684C311.032 12.1483 311.076 12.137 311.121 12.135C311.166 12.1331 311.211 12.1407 311.253 12.1572L315.83 13.6602C315.913 13.6828 315.985 13.7358 316.032 13.8087C316.078 13.8815 316.095 13.9691 316.08 14.0541C316.065 14.1391 316.019 14.2154 315.95 14.2681C315.882 14.3207 315.796 14.3459 315.71 14.3386V14.312ZM209.53 13.8597C209.457 13.8588 209.387 13.8351 209.328 13.7919C209.27 13.7487 209.226 13.6883 209.204 13.6191C209.182 13.5499 209.182 13.4756 209.205 13.4066C209.227 13.3375 209.271 13.2774 209.33 13.2346C210.664 12.2902 211.999 11.3857 213.333 10.5744C213.37 10.5508 213.412 10.5348 213.456 10.5274C213.5 10.52 213.545 10.5213 213.588 10.5312C213.632 10.541 213.673 10.5593 213.709 10.585C213.745 10.6107 213.776 10.6432 213.8 10.6808C213.823 10.7183 213.839 10.7602 213.847 10.8039C213.854 10.8476 213.853 10.8924 213.843 10.9356C213.833 10.9788 213.815 11.0197 213.789 11.0558C213.763 11.092 213.731 11.1227 213.693 11.1463C212.359 11.9976 211.025 12.8888 209.69 13.8065C209.629 13.8404 209.559 13.8543 209.49 13.8464L209.53 13.8597ZM306.49 11.2793L301.9 9.81622C301.812 9.788 301.738 9.7259 301.695 9.64358C301.653 9.56126 301.645 9.46547 301.673 9.37728C301.702 9.28909 301.764 9.21571 301.846 9.1733C301.929 9.1309 302.025 9.12294 302.114 9.15116L306.703 10.6276C306.787 10.6578 306.856 10.7188 306.895 10.798C306.935 10.8772 306.943 10.9685 306.917 11.0532C306.905 11.0966 306.884 11.1372 306.855 11.1723C306.827 11.2074 306.792 11.2364 306.752 11.2576C306.712 11.2787 306.668 11.2916 306.623 11.2953C306.578 11.299 306.533 11.2936 306.49 11.2793ZM217.602 8.77871C217.541 8.77729 217.481 8.76078 217.427 8.73061C217.374 8.70045 217.328 8.65759 217.295 8.60581C217.257 8.52405 217.25 8.43069 217.277 8.34438C217.305 8.25807 217.363 8.18517 217.442 8.14027C218.857 7.40871 220.324 6.71706 221.819 6.09191C221.902 6.0558 221.996 6.05369 222.081 6.08602C222.166 6.11835 222.234 6.18253 222.272 6.26481C222.308 6.34947 222.308 6.44469 222.273 6.5295C222.255 6.5715 222.23 6.60966 222.198 6.64184C222.166 6.67402 222.127 6.69959 222.085 6.71706C220.618 7.34221 219.163 8.04717 217.762 8.75212L217.602 8.77871ZM297.31 8.39299H297.204C295.669 7.92745 294.135 7.47521 292.6 7.06288C292.512 7.03807 292.437 6.97932 292.392 6.89954C292.347 6.81975 292.336 6.72544 292.36 6.63726C292.385 6.54914 292.444 6.47445 292.524 6.42957C292.604 6.38469 292.699 6.37327 292.787 6.39783C294.322 6.83676 295.869 7.289 297.404 7.72793C297.447 7.74004 297.488 7.76084 297.523 7.78909C297.558 7.81733 297.587 7.85244 297.609 7.89225C297.63 7.93206 297.643 7.97576 297.646 8.02068C297.65 8.06561 297.645 8.11082 297.63 8.15358C297.614 8.2147 297.579 8.26971 297.532 8.31213C297.485 8.35455 297.426 8.3826 297.364 8.39299H297.31ZM288.051 5.73277H287.957C286.383 5.32044 284.808 4.9214 283.301 4.56227C283.213 4.5402 283.137 4.4847 283.09 4.40763C283.042 4.33057 283.027 4.23806 283.047 4.14994C283.069 4.06228 283.125 3.98676 283.202 3.93953C283.28 3.89229 283.372 3.87709 283.461 3.89721C284.982 4.25634 286.556 4.65538 288.131 5.06772C288.22 5.0927 288.296 5.15082 288.343 5.23004C288.39 5.30926 288.405 5.40354 288.384 5.49336C288.37 5.56212 288.336 5.62522 288.286 5.67487C288.236 5.72451 288.173 5.75851 288.104 5.77267L288.051 5.73277ZM226.448 4.97462C226.376 4.97629 226.305 4.95539 226.245 4.91485C226.185 4.8743 226.14 4.81613 226.115 4.74848C226.088 4.66196 226.096 4.5687 226.135 4.48733C226.175 4.40597 226.244 4.34249 226.328 4.30956C227.836 3.79082 229.384 3.31197 230.945 2.88634C231.033 2.86178 231.128 2.8732 231.208 2.91808C231.288 2.96296 231.347 3.03763 231.372 3.12575C231.392 3.21207 231.379 3.30302 231.334 3.37977C231.29 3.45652 231.217 3.51322 231.132 3.5381C229.584 3.96373 228.036 4.44256 226.555 4.9613L226.448 4.97462ZM278.738 3.55139H278.671C277.083 3.21886 275.495 2.91293 273.961 2.63361C273.917 2.62716 273.875 2.61199 273.837 2.58898C273.798 2.56597 273.765 2.53559 273.739 2.49964C273.713 2.46369 273.695 2.42291 273.684 2.37967C273.674 2.33643 273.673 2.29162 273.681 2.24789C273.697 2.15811 273.748 2.07837 273.823 2.02606C273.898 1.97374 273.991 1.95307 274.081 1.96856C275.629 2.24788 277.217 2.55381 278.818 2.88634C278.897 2.90869 278.966 2.95856 279.012 3.02697C279.058 3.09537 279.078 3.17784 279.068 3.25956C279.058 3.34128 279.02 3.4169 278.959 3.47283C278.899 3.52875 278.82 3.56132 278.738 3.56468V3.55139ZM235.775 2.46069C235.697 2.4598 235.623 2.43315 235.562 2.38495C235.502 2.33674 235.459 2.26976 235.441 2.19467C235.431 2.15012 235.431 2.10408 235.439 2.0592C235.447 2.01432 235.464 1.97149 235.489 1.93316C235.513 1.89484 235.546 1.86179 235.583 1.8359C235.621 1.81002 235.663 1.79181 235.708 1.78234C237.269 1.46312 238.87 1.17049 240.458 0.931073C240.549 0.922526 240.64 0.947604 240.714 1.00154C240.788 1.05548 240.839 1.13452 240.858 1.2237C240.87 1.3135 240.845 1.4042 240.791 1.47632C240.736 1.54844 240.655 1.59622 240.565 1.60942C238.977 1.84884 237.403 2.12816 235.855 2.46069H235.775ZM269.291 1.86215C267.69 1.63603 266.076 1.43651 264.528 1.27689C264.438 1.26682 264.356 1.2223 264.299 1.15276C264.241 1.08323 264.213 0.994145 264.221 0.904465C264.224 0.859504 264.237 0.815678 264.257 0.775647C264.278 0.735617 264.307 0.700224 264.342 0.67161C264.377 0.642997 264.417 0.621761 264.461 0.609201C264.504 0.59664 264.55 0.593017 264.595 0.598545C266.156 0.758159 267.77 0.957678 269.384 1.1838C269.463 1.19941 269.534 1.24174 269.585 1.30358C269.636 1.36543 269.664 1.44298 269.664 1.52298C269.664 1.60299 269.636 1.68051 269.585 1.74236C269.534 1.80421 269.463 1.84653 269.384 1.86215H269.291ZM245.275 1.03748C245.196 1.02187 245.125 0.979524 245.074 0.917678C245.023 0.855831 244.995 0.778304 244.995 0.6983C244.995 0.618295 245.023 0.540768 245.074 0.478922C245.125 0.417075 245.196 0.37475 245.275 0.359135C246.876 0.212823 248.49 0.1064 250.091 0.0531955C250.138 0.0473052 250.185 0.0516375 250.229 0.0658804C250.274 0.0801233 250.315 0.103935 250.349 0.135637C250.384 0.167339 250.411 0.206166 250.428 0.249375C250.446 0.292584 250.454 0.339119 250.452 0.385723C250.453 0.430497 250.446 0.475186 250.43 0.517078C250.414 0.55897 250.39 0.597216 250.359 0.629517C250.328 0.661818 250.29 0.687501 250.249 0.705038C250.207 0.722574 250.163 0.7316 250.118 0.731564C248.53 0.79807 246.916 0.891172 245.341 1.03748H245.275ZM259.698 0.877877C258.083 0.78477 256.469 0.718265 254.908 0.691663C254.816 0.691663 254.728 0.655222 254.663 0.590366C254.598 0.525511 254.561 0.437541 254.561 0.345821C254.57 0.257089 254.609 0.17415 254.672 0.1111C254.736 0.0480493 254.819 0.00878982 254.908 0C256.496 0 258.123 0.0930996 259.738 0.199508C259.817 0.215123 259.887 0.257469 259.938 0.319315C259.989 0.381161 260.017 0.458688 260.017 0.538693C260.017 0.618697 259.989 0.696225 259.938 0.758071C259.887 0.819917 259.817 0.862263 259.738 0.877877H259.698Z" fill="#C96D11"/>
<path d="M314.19 141.655C314.11 141.654 314.034 141.625 313.973 141.574C313.913 141.523 313.871 141.453 313.856 141.376C313.846 141.332 313.846 141.287 313.854 141.243C313.862 141.199 313.879 141.157 313.904 141.12C313.929 141.082 313.961 141.05 313.999 141.026C314.036 141.001 314.079 140.985 314.123 140.977L316.484 140.538C316.528 140.529 316.573 140.529 316.617 140.538C316.661 140.546 316.703 140.563 316.74 140.588C316.777 140.613 316.809 140.645 316.834 140.682C316.859 140.719 316.876 140.76 316.885 140.804C316.894 140.848 316.894 140.893 316.885 140.936C316.876 140.98 316.859 141.021 316.834 141.058C316.809 141.096 316.778 141.127 316.74 141.152C316.703 141.177 316.662 141.194 316.618 141.203L314.256 141.642L314.19 141.655Z" fill="#55C1F2"/>
<path d="M13.7304 48.5629C12.7065 48.5618 11.6861 48.4458 10.6883 48.217C10.6007 48.1978 10.524 48.1455 10.4742 48.0711C10.4245 47.9967 10.4056 47.906 10.4215 47.818C10.431 47.7734 10.4492 47.7311 10.4752 47.6935C10.5011 47.656 10.5343 47.6239 10.5727 47.5992C10.6112 47.5745 10.6541 47.5576 10.6991 47.5495C10.7442 47.5414 10.7904 47.5422 10.8351 47.552C12.358 47.8972 13.9311 47.9648 15.4783 47.7515C15.5231 47.744 15.569 47.7457 15.6132 47.7565C15.6574 47.7674 15.6989 47.7871 15.7351 47.8145C15.7713 47.8419 15.8016 47.8764 15.824 47.9159C15.8463 47.9554 15.8603 47.999 15.8652 48.0441C15.8727 48.0888 15.871 48.1346 15.8601 48.1787C15.8492 48.2227 15.8295 48.2641 15.802 48.3002C15.7745 48.3363 15.7399 48.3664 15.7003 48.3887C15.6606 48.411 15.6169 48.425 15.5716 48.4299C14.9622 48.5209 14.3466 48.5654 13.7304 48.5629ZM20.068 46.9667C19.9949 46.9618 19.9252 46.9338 19.8689 46.8869C19.8127 46.84 19.7728 46.7765 19.755 46.7056C19.7372 46.6346 19.7424 46.5599 19.7699 46.4921C19.7974 46.4243 19.8457 46.367 19.9079 46.3283C21.283 45.5876 22.5125 44.6053 23.5371 43.4286C23.5651 43.3892 23.6011 43.3561 23.6428 43.3314C23.6845 43.3067 23.7309 43.291 23.7791 43.2853C23.8272 43.2796 23.876 43.284 23.9223 43.2983C23.9686 43.3125 24.0115 43.3363 24.048 43.368C24.0846 43.3998 24.114 43.4388 24.1345 43.4826C24.155 43.5265 24.166 43.574 24.1669 43.6224C24.1678 43.6707 24.1585 43.7187 24.1397 43.7632C24.1208 43.8077 24.0928 43.8478 24.0575 43.8809C22.9745 45.1169 21.6775 46.1486 20.2282 46.9268L20.068 46.9667ZM6.36533 46.3682C6.29758 46.3663 6.23219 46.343 6.17856 46.3017C4.80329 45.4004 3.60124 44.2607 2.62946 42.9365C2.57705 42.8622 2.55605 42.7703 2.57103 42.6807C2.58601 42.5911 2.63576 42.511 2.70951 42.4577C2.78404 42.4054 2.8762 42.3845 2.96607 42.3994C3.05595 42.4144 3.13631 42.4639 3.18982 42.5375C4.10592 43.7971 5.24547 44.879 6.55215 45.7297C6.62752 45.7812 6.68046 45.8592 6.70028 45.9481C6.72009 46.037 6.70529 46.1301 6.65887 46.2086C6.62503 46.2554 6.58108 46.294 6.53028 46.3216C6.47948 46.3492 6.42312 46.3652 6.36533 46.3682ZM26.299 39.9039H26.1789C26.0924 39.8737 26.0213 39.8105 25.9813 39.7283C25.9413 39.646 25.9356 39.5514 25.9654 39.4649C26.5194 38.003 26.7998 36.4521 26.7926 34.8893C26.7926 34.7976 26.8292 34.7097 26.8943 34.6448C26.9593 34.58 27.0476 34.5435 27.1396 34.5435C27.2316 34.5435 27.3198 34.58 27.3848 34.6448C27.4499 34.7097 27.4865 34.7976 27.4865 34.8893C27.4881 36.5331 27.1943 38.1638 26.6192 39.7043C26.5908 39.7649 26.5456 39.8159 26.4887 39.8513C26.4319 39.8867 26.366 39.905 26.299 39.9039ZM0.868242 38.7866C0.792609 38.7864 0.719087 38.7617 0.65887 38.7161C0.598654 38.6704 0.555043 38.6065 0.53468 38.5338C0.209146 37.3416 0.0431578 36.1117 0.0410156 34.876C0.0410156 34.477 0.0410156 34.078 0.0410156 33.6789C0.0566787 33.6005 0.0991357 33.5298 0.161174 33.4791C0.223213 33.4283 0.301002 33.4006 0.381255 33.4006C0.461508 33.4006 0.539256 33.4283 0.601295 33.4791C0.663334 33.5298 0.705791 33.6005 0.721454 33.6789C0.721454 34.0647 0.721454 34.4504 0.721454 34.8228C0.715526 36.0003 0.872679 37.1731 1.18845 38.3077C1.20048 38.3505 1.2038 38.3953 1.19818 38.4394C1.19256 38.4835 1.17814 38.526 1.15575 38.5644C1.13336 38.6029 1.10347 38.6365 1.06784 38.6632C1.03221 38.6899 0.991548 38.7093 0.948294 38.7201L0.868242 38.7866ZM26.9261 32.8011C26.8452 32.8001 26.767 32.772 26.704 32.7213C26.6411 32.6707 26.5971 32.6004 26.5792 32.5217C26.3056 30.9877 25.7491 29.5175 24.9381 28.1856C24.9134 28.1472 24.8966 28.1043 24.8886 28.0594C24.8806 28.0145 24.8816 27.9685 24.8915 27.924C24.9014 27.8795 24.9201 27.8374 24.9464 27.8001C24.9727 27.7628 25.0061 27.7311 25.0448 27.7067C25.125 27.6617 25.2195 27.649 25.3088 27.6713C25.3982 27.6936 25.4756 27.7491 25.5251 27.8265C26.3767 29.2294 26.9645 30.7755 27.2596 32.3887C27.2752 32.4786 27.2545 32.571 27.202 32.6458C27.1495 32.7205 27.0695 32.7715 26.9795 32.7878L26.9261 32.8011ZM1.69547 29.4625C1.64727 29.4743 1.59692 29.4743 1.54872 29.4625C1.50781 29.444 1.47106 29.4174 1.4407 29.3844C1.41034 29.3514 1.387 29.3126 1.37205 29.2704C1.35709 29.2281 1.35083 29.1833 1.35368 29.1386C1.35653 29.0939 1.36839 29.0503 1.38858 29.0103C2.09394 27.5176 3.06603 26.1655 4.25724 25.0199C4.32447 24.9564 4.41426 24.9222 4.50684 24.9247C4.59942 24.9271 4.68721 24.9662 4.7509 25.0332C4.8146 25.1002 4.84897 25.1897 4.84647 25.282C4.84397 25.3743 4.80478 25.4619 4.73755 25.5254C3.60561 26.6003 2.67886 27.8712 2.00236 29.2763C1.97186 29.34 1.92181 29.3924 1.85944 29.4259C1.79707 29.4594 1.72561 29.4722 1.65544 29.4625H1.69547ZM22.0294 24.8337C21.9593 24.8512 21.886 24.8512 21.8159 24.8337C20.5978 23.8568 19.2091 23.1128 17.7198 22.639C17.6339 22.6115 17.5621 22.5516 17.5197 22.4721C17.4774 22.3926 17.4678 22.2998 17.4929 22.2134C17.5234 22.1267 17.5861 22.055 17.6679 22.0129C17.7498 21.9709 17.8448 21.9617 17.9333 21.9873C19.4963 22.4911 20.956 23.2705 22.2429 24.2884C22.3154 24.346 22.3629 24.4294 22.3753 24.5211C22.3877 24.6128 22.3642 24.7057 22.3096 24.7805C22.2264 24.8332 22.1262 24.8522 22.0294 24.8337ZM8.4334 23.0381C8.36678 23.0372 8.30197 23.0165 8.24728 22.9785C8.19258 22.9406 8.15053 22.8872 8.12655 22.8252C8.09033 22.7422 8.08821 22.6484 8.12064 22.5638C8.15307 22.4793 8.21747 22.4107 8.30001 22.373C9.81504 21.7309 11.4322 21.3616 13.0766 21.2823C13.1226 21.2786 13.1689 21.2845 13.2125 21.2996C13.2561 21.3146 13.296 21.3385 13.3299 21.3698C13.3638 21.401 13.3908 21.439 13.4092 21.4811C13.4276 21.5233 13.437 21.5688 13.4368 21.6148C13.4369 21.7043 13.4022 21.7903 13.34 21.8548C13.2778 21.9193 13.1929 21.9572 13.1033 21.9607C11.5398 22.0346 10.0028 22.3906 8.56683 23.0115L8.4334 23.0381Z" fill="white"/>
<path d="M435.11 135.38C433.464 135.272 431.859 134.819 430.4 134.049C430.359 134.031 430.322 134.005 430.292 133.971C430.262 133.938 430.24 133.899 430.226 133.856C430.212 133.813 430.207 133.768 430.212 133.724C430.217 133.679 430.231 133.636 430.254 133.597C430.273 133.556 430.301 133.519 430.336 133.489C430.371 133.459 430.411 133.436 430.455 133.422C430.499 133.409 430.545 133.404 430.591 133.409C430.637 133.414 430.681 133.428 430.721 133.451C432.092 134.199 433.606 134.653 435.164 134.781C435.254 134.791 435.338 134.835 435.397 134.904C435.457 134.973 435.488 135.062 435.484 135.153C435.457 135.228 435.405 135.291 435.337 135.333C435.269 135.374 435.189 135.39 435.11 135.38ZM439.834 134.768C439.755 134.762 439.682 134.73 439.624 134.678C439.566 134.625 439.528 134.554 439.516 134.477C439.503 134.4 439.517 134.321 439.556 134.253C439.594 134.185 439.654 134.132 439.727 134.103C441.214 133.598 442.578 132.787 443.729 131.722C443.798 131.672 443.883 131.649 443.968 131.657C444.053 131.665 444.131 131.704 444.189 131.767C444.247 131.829 444.279 131.911 444.281 131.996C444.282 132.081 444.252 132.163 444.197 132.227C442.985 133.349 441.554 134.209 439.994 134.754L439.834 134.768ZM426.865 131.03C426.812 131.032 426.761 131.021 426.714 130.998C426.667 130.975 426.627 130.94 426.598 130.897C425.564 129.612 424.81 128.126 424.383 126.534C424.362 126.445 424.377 126.35 424.424 126.271C424.472 126.192 424.547 126.134 424.636 126.109C424.679 126.097 424.724 126.093 424.769 126.099C424.813 126.105 424.855 126.119 424.894 126.141C424.933 126.164 424.966 126.193 424.993 126.229C425.02 126.264 425.039 126.305 425.05 126.348C425.448 127.852 426.157 129.256 427.131 130.471C427.193 130.536 427.228 130.622 427.228 130.711C427.228 130.8 427.193 130.886 427.131 130.95C427.095 130.981 427.052 131.003 427.006 131.017C426.96 131.031 426.912 131.035 426.865 131.03ZM446.678 128.45C446.635 128.462 446.588 128.462 446.545 128.45C446.503 128.434 446.465 128.41 446.434 128.378C446.402 128.347 446.377 128.31 446.361 128.268C446.345 128.227 446.337 128.183 446.339 128.138C446.341 128.094 446.352 128.051 446.371 128.011C446.993 126.584 447.311 125.044 447.305 123.488C447.305 123.397 447.342 123.309 447.407 123.244C447.472 123.179 447.56 123.143 447.652 123.143C447.744 123.143 447.832 123.179 447.897 123.244C447.963 123.309 447.999 123.397 447.999 123.488C448.004 125.137 447.663 126.768 446.998 128.277C446.966 128.332 446.919 128.378 446.863 128.408C446.806 128.439 446.742 128.453 446.678 128.45ZM447.585 122.531C447.501 122.529 447.42 122.497 447.356 122.441C447.293 122.385 447.251 122.308 447.239 122.225C447.081 120.677 446.595 119.181 445.811 117.835C445.788 117.796 445.773 117.753 445.767 117.708C445.761 117.663 445.764 117.618 445.777 117.574C445.789 117.53 445.811 117.49 445.839 117.455C445.868 117.42 445.904 117.391 445.944 117.37C446.023 117.326 446.115 117.313 446.202 117.336C446.289 117.358 446.364 117.413 446.411 117.49C447.232 118.922 447.75 120.506 447.932 122.145C447.94 122.235 447.912 122.324 447.855 122.393C447.797 122.463 447.715 122.507 447.626 122.517L447.585 122.531ZM424.463 122.039C424.417 122.032 424.373 122.017 424.333 121.993C424.294 121.969 424.259 121.938 424.232 121.901C424.205 121.864 424.185 121.821 424.174 121.776C424.164 121.732 424.162 121.685 424.169 121.64C424.417 120.011 425.003 118.453 425.891 117.064C425.938 116.988 426.014 116.934 426.102 116.914C426.19 116.894 426.282 116.91 426.358 116.958C426.434 117.005 426.488 117.081 426.508 117.168C426.528 117.256 426.512 117.347 426.464 117.423C425.639 118.741 425.09 120.211 424.85 121.746C424.837 121.836 424.789 121.916 424.716 121.971C424.644 122.026 424.553 122.05 424.463 122.039ZM442.942 114.457C442.877 114.476 442.808 114.476 442.742 114.457C441.491 113.528 440.06 112.866 438.539 112.515C438.451 112.493 438.376 112.437 438.328 112.36C438.281 112.283 438.266 112.191 438.286 112.103C438.295 112.06 438.313 112.019 438.338 111.983C438.364 111.947 438.396 111.917 438.433 111.893C438.47 111.87 438.512 111.854 438.555 111.846C438.599 111.839 438.643 111.84 438.686 111.85C440.301 112.217 441.819 112.919 443.142 113.912C443.216 113.965 443.266 114.045 443.281 114.135C443.296 114.224 443.275 114.316 443.222 114.39C443.183 114.419 443.137 114.44 443.089 114.452C443.041 114.463 442.991 114.465 442.942 114.457ZM429.44 114.164C429.384 114.166 429.329 114.154 429.28 114.128C429.231 114.102 429.19 114.065 429.16 114.018C429.133 113.982 429.114 113.941 429.104 113.897C429.094 113.854 429.093 113.808 429.102 113.765C429.111 113.721 429.129 113.679 429.155 113.643C429.181 113.606 429.214 113.575 429.253 113.552C430.615 112.615 432.161 111.976 433.789 111.677C433.876 111.67 433.962 111.695 434.03 111.748C434.099 111.8 434.145 111.877 434.16 111.962C434.175 112.047 434.158 112.134 434.111 112.207C434.065 112.28 433.993 112.333 433.909 112.355C432.379 112.636 430.924 113.234 429.64 114.111C429.579 114.147 429.51 114.166 429.44 114.164Z" fill="white"/>
<path d="M345.769 8.53964C347.472 8.53964 348.851 7.16401 348.851 5.46709C348.851 3.77016 347.472 2.39453 345.769 2.39453C344.067 2.39453 342.687 3.77016 342.687 5.46709C342.687 7.16401 344.067 8.53964 345.769 8.53964Z" fill="white"/>
<path d="M18.1861 18.118C20.0799 18.118 21.6151 16.5876 21.6151 14.6996C21.6151 12.8117 20.0799 11.2812 18.1861 11.2812C16.2923 11.2812 14.7571 12.8117 14.7571 14.6996C14.7571 16.5876 16.2923 18.118 18.1861 18.118Z" fill="white"/>
<path d="M440.795 106.343C441.93 106.343 442.85 105.426 442.85 104.294C442.85 103.163 441.93 102.246 440.795 102.246C439.661 102.246 438.741 103.163 438.741 104.294C438.741 105.426 439.661 106.343 440.795 106.343Z" fill="white"/>
<path d="M184.552 24.2745C186.638 24.2745 188.328 22.5892 188.328 20.5103C188.328 18.4314 186.638 16.7461 184.552 16.7461C182.467 16.7461 180.776 18.4314 180.776 20.5103C180.776 22.5892 182.467 24.2745 184.552 24.2745Z" fill="white"/>
<path d="M442.357 90.008C442.277 86.4965 438.861 83.1313 435.272 83.5968C433.553 84.0246 431.875 84.5986 430.255 85.3127C428.56 85.8447 426.466 85.858 425.292 84.5412C424.745 83.6871 424.255 82.7985 423.824 81.881C423.268 81.1428 422.521 80.5696 421.663 80.2228C420.805 79.876 419.868 79.7687 418.954 79.9124C417.126 80.2243 415.419 81.0293 414.017 82.2401C413.312 82.9286 412.459 83.4473 411.522 83.7564C410.703 83.832 409.88 83.6762 409.146 83.3069C408.412 82.9376 407.798 82.3696 407.373 81.6682C406.412 80.3381 405.838 78.7685 404.797 77.4916C402.036 74.0599 396.325 73.8604 392.949 76.7069C389.814 79.3671 389.267 85.8314 390.561 90.008H442.357Z" fill="white"/>
<path d="M126.94 29.0639C125.606 25.7254 121.377 22.5863 118.054 23.4376C115.866 23.9962 113.651 25.6057 111.57 24.7677C109.488 23.9297 109.115 20.631 107.314 18.995C105.059 16.92 101.456 17.9974 98.6944 19.3275C95.9325 20.6577 92.6102 22.1075 89.9818 20.5379C86.8863 18.6891 87.1665 14.1667 85.4587 11.0011C82.977 6.33238 76.2123 5.38798 71.4891 7.78218C66.7659 10.1764 63.7371 14.9249 61.4289 19.6734C60.228 22.1208 58.3468 25.0736 55.6783 24.5682C53.9171 24.2357 52.863 22.5065 51.5154 21.336C50.2834 20.2507 48.7307 19.5943 47.0917 19.4657C45.4526 19.3371 43.8161 19.7434 42.429 20.6233C41.0418 21.5031 39.9793 22.8088 39.4017 24.3434C38.8242 25.8779 38.7628 27.5581 39.227 29.1304L126.94 29.0639Z" fill="white"/>
<path d="M349.865 183.955L348.998 182.731C340.766 171.159 337.63 158.137 339.938 145.102C341.966 133.663 347.85 125.15 354.095 116.106C355.175 114.536 356.27 112.953 357.364 111.331L358.845 109.136C361.246 105.611 364.182 101.155 366.263 97.5905L366.77 96.6861L367.384 97.524C368.465 98.9872 369.519 100.517 370.546 102.02C369.879 99.1867 369.212 96.2604 368.625 93.3608V93.1613L368.705 92.9751C368.985 92.3366 369.278 91.645 369.585 91.0331C370.255 89.6506 370.851 88.2343 371.373 86.7901C376.884 70.3765 377.177 57.8469 372.361 44.8916L370.759 40.582L373.521 44.2664C391.574 68.3015 398.498 97.3112 392.067 121.865C389.786 130.551 385.983 136.137 380.446 143.679L379.832 144.53L379.325 143.599C378.098 141.338 376.75 139.156 375.443 137.055C376.056 140.114 376.777 143.2 377.524 146.206L377.631 146.565L377.364 146.845C373.948 150.343 370.96 152.897 367.17 156.155C357.831 164.136 352.494 172.476 350.239 182.518L349.865 183.955ZM366.917 99.1335C364.875 102.618 362.167 106.622 359.952 109.881L358.524 112.075C357.43 113.698 356.323 115.294 355.242 116.864C349.091 125.762 343.234 134.155 341.299 145.328C339.173 157.726 342.051 170.458 349.305 180.749C351.813 171.053 357.31 162.886 366.303 155.131C369.986 151.992 372.894 149.505 376.15 146.179C375.109 142.189 374.309 138.199 373.481 134.208L372.667 130.045L374.602 133.211L376.203 135.791C377.457 137.786 378.738 139.848 379.952 142.003C385.063 135.007 388.598 129.62 390.733 121.493C396.764 98.5083 390.867 71.5204 374.936 48.5228C378.378 60.3608 377.604 72.1854 372.587 87.1758C372.056 88.6675 371.441 90.1285 370.746 91.5519C370.479 92.1238 370.212 92.709 369.972 93.2677C370.599 96.4467 371.306 99.6522 372.107 102.765L373.441 108.644L370.159 103.855C369.198 102.326 368.038 100.65 366.917 99.1335Z" fill="#E58B24"/>
<path d="M335.469 174.87C342.407 171.478 351.827 172.209 356.39 165.944C358.979 162.406 359.059 157.645 361.033 153.707C362.248 151.359 364.083 149.385 366.34 148C368.598 146.615 371.191 145.87 373.842 145.847C376.511 145.847 379.179 146.645 381.848 145.953C388.092 144.277 389.853 135.485 395.75 132.984C398.272 131.92 401.087 132.186 403.756 131.654C407.959 130.71 411.401 127.664 415.471 126.334C419.54 125.004 425.291 126.267 426.024 130.484C426.16 132.107 425.89 133.739 425.237 135.232L421.234 146.831C419.567 151.726 417.525 157.059 412.949 159.48C408.666 161.741 403.022 160.903 399.259 163.936C394.483 167.767 395.257 175.721 390.707 179.897C385.237 184.925 374.816 181.919 370.426 187.878C369.435 189.465 368.689 191.191 368.212 192.999C365.009 202.19 357.417 210.197 347.864 212.219C339.579 213.975 326.623 209.865 324.488 200.581C322.567 191.815 327.344 178.847 335.469 174.87Z" fill="#E58B24"/>
<path d="M421.301 130.086C407.238 142.19 392.752 153.78 377.844 164.855C391.907 152.742 406.393 141.152 421.301 130.086Z" fill="#121B46"/>
<path d="M408.493 132.133C407.449 136.451 405.734 140.58 403.409 144.37C404.461 140.054 406.175 135.926 408.493 132.133Z" fill="#121B46"/>
<path d="M415.818 150.142C408.646 151.427 401.369 152.037 394.083 151.965C401.255 150.68 408.532 150.07 415.818 150.142Z" fill="#121B46"/>
<path d="M390.882 140.34C389.914 146.506 388.263 152.546 385.959 158.35C386.934 152.185 388.585 146.146 390.882 140.34Z" fill="#121B46"/>
<path d="M394.55 166.555C389.455 166.241 384.428 165.234 379.606 163.562C384.7 163.884 389.727 164.891 394.55 166.555Z" fill="#121B46"/>
<path d="M112.063 216.674C100.495 216.674 84.8043 207.177 81.8957 194.94C81.1611 191.195 80.8346 187.382 80.9217 183.567C80.8283 176.997 80.7482 170.785 76.7321 166.183C74.4819 163.901 71.8262 162.057 68.9001 160.743C66.676 159.648 64.5626 158.343 62.5891 156.845C59.8449 154.559 57.7846 151.564 56.6338 148.188C55.483 144.812 55.2861 141.185 56.0646 137.705C56.3448 136.521 56.7318 135.351 57.1187 134.22C57.9541 132.174 58.4063 129.992 58.4529 127.782C58.2928 123.633 55.4242 120.427 52.3955 117.022C49.5935 113.896 46.7116 110.651 45.9777 106.541C45.7014 104.327 45.7645 102.085 46.1645 99.8901C46.369 98.5374 46.4937 97.1739 46.5381 95.8067C46.3988 92.7668 45.8283 89.762 44.8436 86.8816C44.0694 84.4849 43.5157 82.0229 43.1892 79.5261C42.9998 77.6457 43.1968 75.7466 43.768 73.9445C44.3392 72.1425 45.2726 70.4754 46.5114 69.0449C47.2283 68.2519 48.1117 67.6263 49.0987 67.2125C50.0858 66.7986 51.1521 66.6068 52.222 66.6507C54.4353 66.948 56.5398 67.789 58.3462 69.0981L71.9689 77.4645C78.0797 81.2154 84.1906 85.4451 85.9651 92.0025C86.5673 94.8204 86.7382 97.7129 86.4721 100.582C86.312 104.133 86.1652 107.498 87.6329 110.491C89.3408 113.989 92.7698 116.038 96.3989 118.192C99.8279 120.254 103.39 122.382 105.405 125.88C107.78 129.977 107.46 134.939 107.153 139.74C106.819 145.061 106.486 150.088 109.675 153.746C111.04 155.141 112.61 156.321 114.331 157.244L115.412 157.909C127.06 165.159 134.478 177.675 134.305 189.832C134.145 200.473 125.192 216.674 112.05 216.687L112.063 216.674ZM51.8751 68.0074C51.0471 68.0211 50.2308 68.2054 49.4776 68.5487C48.7245 68.8921 48.0508 69.3871 47.4988 70.0025C46.3906 71.2902 45.5566 72.7889 45.0474 74.4078C44.5382 76.0267 44.3645 77.7318 44.5368 79.4197C44.8689 81.8379 45.409 84.2232 46.1512 86.5491C47.1744 89.5542 47.7629 92.6893 47.8991 95.8599C47.858 97.2808 47.7288 98.6979 47.5121 100.103C47.1323 102.152 47.0693 104.247 47.3253 106.315C47.9925 110.052 50.741 113.151 53.4095 116.131C56.4783 119.562 59.6404 123.101 59.8139 127.743C59.765 130.111 59.2811 132.451 58.3862 134.646C58.0126 135.75 57.6257 136.88 57.3589 138.011C56.6378 141.247 56.8227 144.619 57.8933 147.757C58.9639 150.896 60.8791 153.681 63.4297 155.808C65.334 157.254 67.3763 158.511 69.5272 159.559C72.5897 160.962 75.3703 162.909 77.7328 165.305C82.0691 170.28 82.1625 177.023 82.2559 183.554C82.1732 187.27 82.4863 190.984 83.1899 194.634C85.8584 206.113 101.216 215.344 112.063 215.344C124.418 215.344 132.837 199.968 132.984 189.792C133.144 178.154 125.979 166.09 114.718 159.067L113.651 158.415C111.81 157.431 110.135 156.165 108.687 154.664C105.138 150.594 105.498 145.047 105.832 139.687C106.126 135.098 106.432 130.376 104.271 126.585C102.416 123.38 99.014 121.345 95.7184 119.376C92.0893 117.208 88.3267 114.96 86.3787 111.116C84.7643 107.818 84.9244 104.133 85.0445 100.555C85.3062 97.825 85.1487 95.0711 84.5775 92.3883C82.9364 86.2831 77.0523 82.2529 71.235 78.6483L57.6124 70.2819C55.9939 69.0899 54.106 68.3133 52.1153 68.0207L51.8751 68.0074Z" fill="#E58B24"/>
<path d="M101.788 180.203C92.5822 170.028 80.3204 163.165 67.912 157.272C63.4689 155.157 58.9325 153.122 54.6495 150.701L52.9817 159.094L50.9937 148.454C49.4791 147.463 48.0182 146.393 46.6174 145.248C41.6979 141.117 37.7548 135.954 35.07 130.127C32.3852 124.301 31.025 117.955 31.0867 111.543C24.7891 135.485 25.176 163.856 42.5346 181.52C48.3719 187.261 55.2675 191.823 62.8418 194.954L63.1353 183.302L67.8185 196.976C72.9189 198.864 78.1165 200.48 83.3892 201.818C94.9038 204.824 106.899 208.468 114.197 217.779C116.772 204.398 110.995 190.365 101.788 180.203Z" fill="#E58B24"/>
<path d="M30.4746 121.652C32.9963 152.245 50.4883 179.326 82.15 185.378C86.299 186.237 90.5033 186.806 94.7319 187.08C91.1295 186.947 87.2201 186.642 83.6176 186.149C50.5283 181.241 31.8089 153.602 30.4746 121.652Z" fill="#121B46"/>
<path d="M348.626 52.6836H104.512C98.9853 52.6836 94.5051 57.1499 94.5051 62.6594V217.112C94.5051 222.621 98.9853 227.088 104.512 227.088H348.626C354.152 227.088 358.633 222.621 358.633 217.112V62.6594C358.633 57.1499 354.152 52.6836 348.626 52.6836Z" fill="white"/>
<path d="M356.124 139.89C356.124 140.881 355.829 141.851 355.277 142.675C354.724 143.5 353.938 144.143 353.019 144.522C352.1 144.902 351.089 145.001 350.113 144.808C349.137 144.614 348.241 144.137 347.538 143.435C346.834 142.734 346.355 141.841 346.161 140.868C345.967 139.895 346.066 138.887 346.447 137.971C346.828 137.054 347.473 136.271 348.3 135.72C349.127 135.169 350.099 134.875 351.094 134.875C352.428 134.875 353.708 135.403 354.651 136.344C355.594 137.284 356.124 138.56 356.124 139.89Z" fill="#9CA7B0"/>
<path d="M343.542 55.5859H104.111V224.177H343.542V55.5859Z" fill="#E58B24"/>
<path d="M298.458 201.617H293.655V200.247H297.084V196.828H298.458V201.617Z" fill="white"/>
<path d="M285.289 201.631H276.923V200.301H285.289V201.631ZM268.558 201.631H260.192V200.301H268.558V201.631ZM251.826 201.631H243.46V200.301H251.786L251.826 201.631ZM235.095 201.631H226.729V200.301H235.095V201.631ZM218.363 201.631H209.997V200.301H218.43L218.363 201.631ZM201.645 201.631H193.279V200.301H201.645V201.631Z" fill="white"/>
<path d="M184.913 201.617H180.11V196.828H181.484V200.247H184.913V201.617Z" fill="white"/>
<path d="M181.485 188.502H180.151V180.162H181.485V188.502ZM181.485 171.822H180.151V163.482H181.485V171.822ZM181.485 155.143H180.151V146.803H181.485V155.143ZM181.485 138.463H180.151V130.123H181.485V138.463ZM181.485 121.783H180.151V113.444H181.485V121.783ZM181.485 105.117H180.151V96.7773H181.485V105.117Z" fill="white"/>
<path d="M181.484 88.4251H180.11V83.6367H184.913V85.0067H181.484V88.4251Z" fill="white"/>
<path d="M285.289 85.0215H276.923V83.6914H285.289V85.0215ZM268.558 85.0215H260.192V83.6914H268.558V85.0215ZM251.826 85.0215H243.46V83.6914H251.786L251.826 85.0215ZM235.095 85.0215H226.729V83.6914H235.095V85.0215ZM218.363 85.0215H210.011V83.6914H218.43L218.363 85.0215ZM201.645 85.0215H193.279V83.6914H201.645V85.0215Z" fill="white"/>
<path d="M298.458 88.4251H297.084V85.0067H293.655V83.6367H298.458V88.4251Z" fill="white"/>
<path d="M298.484 188.505H297.15V180.165H298.484V188.505ZM298.484 171.825H297.15V163.485H298.484V171.825ZM298.484 155.186H297.15V146.806H298.484V155.186ZM298.484 138.506H297.15V130.166H298.484V138.506ZM298.484 121.826H297.15V113.487H298.484V121.826ZM298.484 105.16H297.15V96.8203H298.484V105.16Z" fill="white"/>
<path d="M297.124 98.7619C305.274 98.7619 311.88 92.1755 311.88 84.0509C311.88 75.9262 305.274 69.3398 297.124 69.3398C288.974 69.3398 282.367 75.9262 282.367 84.0509C282.367 92.1755 288.974 98.7619 297.124 98.7619Z" fill="#FDB32C"/>
<path d="M304.795 82.308H298.884V76.4023H295.361V82.308H289.451V85.8062H295.361V91.6986H298.884V85.8062H304.795V82.308Z" fill="white"/>
<path d="M149.396 54.9453H104.111V224.441H149.396V54.9453Z" fill="#C96D11"/>
<path d="M131.344 84.75C131.107 84.7511 130.874 84.8056 130.661 84.9094L128.377 82.625H126.562V83.6875H127.936L129.91 85.6611C129.806 85.8738 129.751 86.1071 129.75 86.3438C129.75 86.659 129.843 86.9671 130.019 87.2292C130.194 87.4913 130.443 87.6956 130.734 87.8162C131.025 87.9368 131.346 87.9684 131.655 87.9069C131.964 87.8454 132.248 87.6936 132.471 87.4707C132.694 87.2478 132.845 86.9638 132.907 86.6547C132.968 86.3455 132.937 86.0251 132.816 85.7338C132.696 85.4426 132.491 85.1937 132.229 85.0186C131.967 84.8435 131.659 84.75 131.344 84.75ZM131.344 86.875C131.239 86.875 131.136 86.8438 131.049 86.7855C130.961 86.7271 130.893 86.6441 130.853 86.5471C130.813 86.45 130.802 86.3432 130.823 86.2401C130.843 86.1371 130.894 86.0424 130.968 85.9681C131.042 85.8938 131.137 85.8432 131.24 85.8227C131.343 85.8022 131.45 85.8127 131.547 85.8529C131.644 85.8931 131.727 85.9612 131.785 86.0486C131.844 86.136 131.875 86.2387 131.875 86.3438C131.875 86.4846 131.819 86.6198 131.719 86.7194C131.62 86.819 131.485 86.875 131.344 86.875ZM131.344 78.9063C131.015 78.9072 130.695 79.0099 130.427 79.2001C130.159 79.3904 129.957 79.6589 129.848 79.9688H126.562V81.0313H129.848C129.946 81.306 130.117 81.5486 130.344 81.7324C130.57 81.9163 130.843 82.0344 131.131 82.0738C131.42 82.1133 131.715 82.0725 131.982 81.956C132.25 81.8395 132.48 81.6518 132.648 81.4133C132.816 81.1748 132.915 80.8947 132.934 80.6037C132.954 80.3127 132.893 80.0219 132.758 79.7632C132.624 79.5044 132.42 79.2876 132.171 79.1365C131.922 78.9854 131.635 78.9057 131.344 78.9063ZM131.344 81.0313C131.239 81.0313 131.136 81.0001 131.049 80.9417C130.961 80.8833 130.893 80.8004 130.853 80.7033C130.813 80.6062 130.802 80.4994 130.823 80.3964C130.843 80.2933 130.894 80.1986 130.968 80.1244C131.042 80.0501 131.137 79.9995 131.24 79.979C131.343 79.9585 131.45 79.969 131.547 80.0092C131.644 80.0494 131.727 80.1175 131.785 80.2049C131.844 80.2922 131.875 80.3949 131.875 80.5C131.875 80.6409 131.819 80.776 131.719 80.8757C131.62 80.9753 131.485 81.0313 131.344 81.0313ZM131.344 73.0625C130.921 73.0629 130.516 73.231 130.217 73.5298C129.918 73.8286 129.75 74.2337 129.75 74.6563C129.752 74.9107 129.815 75.161 129.935 75.3857L127.942 77.3125H126.562V78.375H128.371L130.708 76.1161C130.926 76.2108 131.161 76.2559 131.398 76.2481C131.635 76.2403 131.867 76.1797 132.077 76.0709C132.287 75.9621 132.471 75.8078 132.614 75.6191C132.757 75.4304 132.857 75.2122 132.905 74.9803C132.953 74.7484 132.949 74.5086 132.893 74.2784C132.837 74.0483 132.73 73.8336 132.581 73.6499C132.431 73.4661 132.243 73.3181 132.029 73.2165C131.815 73.1149 131.581 73.0623 131.344 73.0625ZM131.344 75.1875C131.239 75.1875 131.136 75.1563 131.049 75.098C130.961 75.0396 130.893 74.9566 130.853 74.8596C130.813 74.7625 130.802 74.6557 130.823 74.5526C130.843 74.4496 130.894 74.3549 130.968 74.2806C131.042 74.2063 131.137 74.1557 131.24 74.1352C131.343 74.1147 131.45 74.1252 131.547 74.1654C131.644 74.2056 131.727 74.2737 131.785 74.3611C131.844 74.4485 131.875 74.5512 131.875 74.6563C131.875 74.7971 131.819 74.9323 131.719 75.0319C131.62 75.1315 131.485 75.1875 131.344 75.1875Z" fill="#F5E6E6"/>
<path d="M126.562 75.1875H127.625V74.125H126.562C126.26 74.126 125.961 74.1921 125.686 74.3188C125.411 74.4454 125.166 74.6297 124.969 74.8592C124.771 74.6297 124.527 74.4454 124.252 74.3188C123.977 74.1921 123.678 74.126 123.375 74.125H122.844C121.576 74.1264 120.361 74.6306 119.464 75.5269C118.568 76.4233 118.064 77.6386 118.062 78.9062V82.0938C118.064 83.3614 118.568 84.5767 119.464 85.4731C120.361 86.3694 121.576 86.8736 122.844 86.875H123.375C123.678 86.874 123.977 86.8079 124.252 86.6812C124.527 86.5546 124.771 86.3703 124.969 86.1408C125.166 86.3703 125.411 86.5546 125.686 86.6812C125.961 86.8079 126.26 86.874 126.562 86.875H127.625V85.8125H126.562C126.281 85.8122 126.011 85.7002 125.812 85.501C125.612 85.3018 125.5 85.0317 125.5 84.75V76.25C125.5 75.9683 125.612 75.6982 125.812 75.499C126.011 75.2998 126.281 75.1878 126.562 75.1875ZM123.375 85.8125H122.844C121.95 85.8109 121.087 85.488 120.413 84.9028C119.738 84.3176 119.296 83.5091 119.168 82.625H120.188V81.5625H119.125V79.4375H120.719C121.141 79.4371 121.546 79.269 121.845 78.9702C122.144 78.6714 122.312 78.2663 122.312 77.8438V76.7812H121.25V77.8438C121.25 77.9846 121.194 78.1198 121.094 78.2194C120.995 78.319 120.86 78.375 120.719 78.375H119.168C119.296 77.4909 119.738 76.6824 120.413 76.0972C121.087 75.512 121.95 75.1891 122.844 75.1875H123.375C123.657 75.1878 123.927 75.2998 124.126 75.499C124.325 75.6982 124.437 75.9683 124.438 76.25V78.375H123.375V79.4375H124.438V81.5625H123.375C122.952 81.5629 122.547 81.731 122.249 82.0298C121.95 82.3286 121.782 82.7337 121.781 83.1562V84.2188H122.844V83.1562C122.844 83.0154 122.9 82.8802 122.999 82.7806C123.099 82.681 123.234 82.625 123.375 82.625H124.438V84.75C124.437 85.0317 124.325 85.3018 124.126 85.501C123.927 85.7002 123.657 85.8122 123.375 85.8125Z" fill="#F5E6E6"/>
<path d="M131.344 140.75C131.107 140.751 130.874 140.806 130.661 140.909L128.377 138.625H126.562V139.688H127.936L129.91 141.661C129.806 141.874 129.751 142.107 129.75 142.344C129.75 142.659 129.843 142.967 130.019 143.229C130.194 143.491 130.443 143.696 130.734 143.816C131.025 143.937 131.346 143.968 131.655 143.907C131.964 143.845 132.248 143.694 132.471 143.471C132.694 143.248 132.845 142.964 132.907 142.655C132.968 142.346 132.937 142.025 132.816 141.734C132.696 141.443 132.491 141.194 132.229 141.019C131.967 140.843 131.659 140.75 131.344 140.75ZM131.344 142.875C131.239 142.875 131.136 142.844 131.049 142.785C130.961 142.727 130.893 142.644 130.853 142.547C130.813 142.45 130.802 142.343 130.823 142.24C130.843 142.137 130.894 142.042 130.968 141.968C131.042 141.894 131.137 141.843 131.24 141.823C131.343 141.802 131.45 141.813 131.547 141.853C131.644 141.893 131.727 141.961 131.785 142.049C131.844 142.136 131.875 142.239 131.875 142.344C131.875 142.485 131.819 142.62 131.719 142.719C131.62 142.819 131.485 142.875 131.344 142.875ZM131.344 134.906C131.015 134.907 130.695 135.01 130.427 135.2C130.159 135.39 129.957 135.659 129.848 135.969H126.562V137.031H129.848C129.946 137.306 130.117 137.549 130.344 137.732C130.57 137.916 130.843 138.034 131.131 138.074C131.42 138.113 131.715 138.072 131.982 137.956C132.25 137.84 132.48 137.652 132.648 137.413C132.816 137.175 132.915 136.895 132.934 136.604C132.954 136.313 132.893 136.022 132.758 135.763C132.624 135.504 132.42 135.288 132.171 135.137C131.922 134.985 131.635 134.906 131.344 134.906ZM131.344 137.031C131.239 137.031 131.136 137 131.049 136.942C130.961 136.883 130.893 136.8 130.853 136.703C130.813 136.606 130.802 136.499 130.823 136.396C130.843 136.293 130.894 136.199 130.968 136.124C131.042 136.05 131.137 135.999 131.24 135.979C131.343 135.958 131.45 135.969 131.547 136.009C131.644 136.049 131.727 136.117 131.785 136.205C131.844 136.292 131.875 136.395 131.875 136.5C131.875 136.641 131.819 136.776 131.719 136.876C131.62 136.975 131.485 137.031 131.344 137.031ZM131.344 129.063C130.921 129.063 130.516 129.231 130.217 129.53C129.918 129.829 129.75 130.234 129.75 130.656C129.752 130.911 129.815 131.161 129.935 131.386L127.942 133.313H126.562V134.375H128.371L130.708 132.116C130.926 132.211 131.161 132.256 131.398 132.248C131.635 132.24 131.867 132.18 132.077 132.071C132.287 131.962 132.471 131.808 132.614 131.619C132.757 131.43 132.857 131.212 132.905 130.98C132.953 130.748 132.949 130.509 132.893 130.278C132.837 130.048 132.73 129.834 132.581 129.65C132.431 129.466 132.243 129.318 132.029 129.216C131.815 129.115 131.581 129.062 131.344 129.063ZM131.344 131.188C131.239 131.188 131.136 131.156 131.049 131.098C130.961 131.04 130.893 130.957 130.853 130.86C130.813 130.762 130.802 130.656 130.823 130.553C130.843 130.45 130.894 130.355 130.968 130.281C131.042 130.206 131.137 130.156 131.24 130.135C131.343 130.115 131.45 130.125 131.547 130.165C131.644 130.206 131.727 130.274 131.785 130.361C131.844 130.448 131.875 130.551 131.875 130.656C131.875 130.797 131.819 130.932 131.719 131.032C131.62 131.132 131.485 131.188 131.344 131.188Z" fill="#F5E6E6"/>
<path d="M126.562 131.188H127.625V130.125H126.562C126.26 130.126 125.961 130.192 125.686 130.319C125.411 130.445 125.166 130.63 124.969 130.859C124.771 130.63 124.527 130.445 124.252 130.319C123.977 130.192 123.678 130.126 123.375 130.125H122.844C121.576 130.126 120.361 130.631 119.464 131.527C118.568 132.423 118.064 133.639 118.062 134.906V138.094C118.064 139.361 118.568 140.577 119.464 141.473C120.361 142.369 121.576 142.874 122.844 142.875H123.375C123.678 142.874 123.977 142.808 124.252 142.681C124.527 142.555 124.771 142.37 124.969 142.141C125.166 142.37 125.411 142.555 125.686 142.681C125.961 142.808 126.26 142.874 126.562 142.875H127.625V141.812H126.562C126.281 141.812 126.011 141.7 125.812 141.501C125.612 141.302 125.5 141.032 125.5 140.75V132.25C125.5 131.968 125.612 131.698 125.812 131.499C126.011 131.3 126.281 131.188 126.562 131.188ZM123.375 141.812H122.844C121.95 141.811 121.087 141.488 120.413 140.903C119.738 140.318 119.296 139.509 119.168 138.625H120.188V137.562H119.125V135.438H120.719C121.141 135.437 121.546 135.269 121.845 134.97C122.144 134.671 122.312 134.266 122.312 133.844V132.781H121.25V133.844C121.25 133.985 121.194 134.12 121.094 134.219C120.995 134.319 120.86 134.375 120.719 134.375H119.168C119.296 133.491 119.738 132.682 120.413 132.097C121.087 131.512 121.95 131.189 122.844 131.188H123.375C123.657 131.188 123.927 131.3 124.126 131.499C124.325 131.698 124.437 131.968 124.438 132.25V134.375H123.375V135.438H124.438V137.562H123.375C122.952 137.563 122.547 137.731 122.249 138.03C121.95 138.329 121.782 138.734 121.781 139.156V140.219H122.844V139.156C122.844 139.015 122.9 138.88 122.999 138.781C123.099 138.681 123.234 138.625 123.375 138.625H124.438V140.75C124.437 141.032 124.325 141.302 124.126 141.501C123.927 141.7 123.657 141.812 123.375 141.812Z" fill="#F5E6E6"/>
<path d="M131.344 197.75C131.107 197.751 130.874 197.806 130.661 197.909L128.377 195.625H126.562V196.688H127.936L129.91 198.661C129.806 198.874 129.751 199.107 129.75 199.344C129.75 199.659 129.843 199.967 130.019 200.229C130.194 200.491 130.443 200.696 130.734 200.816C131.025 200.937 131.346 200.968 131.655 200.907C131.964 200.845 132.248 200.694 132.471 200.471C132.694 200.248 132.845 199.964 132.907 199.655C132.968 199.346 132.937 199.025 132.816 198.734C132.696 198.443 132.491 198.194 132.229 198.019C131.967 197.843 131.659 197.75 131.344 197.75ZM131.344 199.875C131.239 199.875 131.136 199.844 131.049 199.785C130.961 199.727 130.893 199.644 130.853 199.547C130.813 199.45 130.802 199.343 130.823 199.24C130.843 199.137 130.894 199.042 130.968 198.968C131.042 198.894 131.137 198.843 131.24 198.823C131.343 198.802 131.45 198.813 131.547 198.853C131.644 198.893 131.727 198.961 131.785 199.049C131.844 199.136 131.875 199.239 131.875 199.344C131.875 199.485 131.819 199.62 131.719 199.719C131.62 199.819 131.485 199.875 131.344 199.875ZM131.344 191.906C131.015 191.907 130.695 192.01 130.427 192.2C130.159 192.39 129.957 192.659 129.848 192.969H126.562V194.031H129.848C129.946 194.306 130.117 194.549 130.344 194.732C130.57 194.916 130.843 195.034 131.131 195.074C131.42 195.113 131.715 195.072 131.982 194.956C132.25 194.84 132.48 194.652 132.648 194.413C132.816 194.175 132.915 193.895 132.934 193.604C132.954 193.313 132.893 193.022 132.758 192.763C132.624 192.504 132.42 192.288 132.171 192.137C131.922 191.985 131.635 191.906 131.344 191.906ZM131.344 194.031C131.239 194.031 131.136 194 131.049 193.942C130.961 193.883 130.893 193.8 130.853 193.703C130.813 193.606 130.802 193.499 130.823 193.396C130.843 193.293 130.894 193.199 130.968 193.124C131.042 193.05 131.137 192.999 131.24 192.979C131.343 192.958 131.45 192.969 131.547 193.009C131.644 193.049 131.727 193.117 131.785 193.205C131.844 193.292 131.875 193.395 131.875 193.5C131.875 193.641 131.819 193.776 131.719 193.876C131.62 193.975 131.485 194.031 131.344 194.031ZM131.344 186.063C130.921 186.063 130.516 186.231 130.217 186.53C129.918 186.829 129.75 187.234 129.75 187.656C129.752 187.911 129.815 188.161 129.935 188.386L127.942 190.313H126.562V191.375H128.371L130.708 189.116C130.926 189.211 131.161 189.256 131.398 189.248C131.635 189.24 131.867 189.18 132.077 189.071C132.287 188.962 132.471 188.808 132.614 188.619C132.757 188.43 132.857 188.212 132.905 187.98C132.953 187.748 132.949 187.509 132.893 187.278C132.837 187.048 132.73 186.834 132.581 186.65C132.431 186.466 132.243 186.318 132.029 186.216C131.815 186.115 131.581 186.062 131.344 186.063ZM131.344 188.188C131.239 188.188 131.136 188.156 131.049 188.098C130.961 188.04 130.893 187.957 130.853 187.86C130.813 187.762 130.802 187.656 130.823 187.553C130.843 187.45 130.894 187.355 130.968 187.281C131.042 187.206 131.137 187.156 131.24 187.135C131.343 187.115 131.45 187.125 131.547 187.165C131.644 187.206 131.727 187.274 131.785 187.361C131.844 187.448 131.875 187.551 131.875 187.656C131.875 187.797 131.819 187.932 131.719 188.032C131.62 188.132 131.485 188.188 131.344 188.188Z" fill="#F5E6E6"/>
<path d="M126.562 188.188H127.625V187.125H126.562C126.26 187.126 125.961 187.192 125.686 187.319C125.411 187.445 125.166 187.63 124.969 187.859C124.771 187.63 124.527 187.445 124.252 187.319C123.977 187.192 123.678 187.126 123.375 187.125H122.844C121.576 187.126 120.361 187.631 119.464 188.527C118.568 189.423 118.064 190.639 118.062 191.906V195.094C118.064 196.361 118.568 197.577 119.464 198.473C120.361 199.369 121.576 199.874 122.844 199.875H123.375C123.678 199.874 123.977 199.808 124.252 199.681C124.527 199.555 124.771 199.37 124.969 199.141C125.166 199.37 125.411 199.555 125.686 199.681C125.961 199.808 126.26 199.874 126.562 199.875H127.625V198.812H126.562C126.281 198.812 126.011 198.7 125.812 198.501C125.612 198.302 125.5 198.032 125.5 197.75V189.25C125.5 188.968 125.612 188.698 125.812 188.499C126.011 188.3 126.281 188.188 126.562 188.188ZM123.375 198.812H122.844C121.95 198.811 121.087 198.488 120.413 197.903C119.738 197.318 119.296 196.509 119.168 195.625H120.188V194.562H119.125V192.438H120.719C121.141 192.437 121.546 192.269 121.845 191.97C122.144 191.671 122.312 191.266 122.312 190.844V189.781H121.25V190.844C121.25 190.985 121.194 191.12 121.094 191.219C120.995 191.319 120.86 191.375 120.719 191.375H119.168C119.296 190.491 119.738 189.682 120.413 189.097C121.087 188.512 121.95 188.189 122.844 188.188H123.375C123.657 188.188 123.927 188.3 124.126 188.499C124.325 188.698 124.437 188.968 124.438 189.25V191.375H123.375V192.438H124.438V194.562H123.375C122.952 194.563 122.547 194.731 122.249 195.03C121.95 195.329 121.782 195.734 121.781 196.156V197.219H122.844V196.156C122.844 196.015 122.9 195.88 122.999 195.781C123.099 195.681 123.234 195.625 123.375 195.625H124.438V197.75C124.437 198.032 124.325 198.302 124.126 198.501C123.927 198.7 123.657 198.812 123.375 198.812Z" fill="#F5E6E6"/>
<path d="M144.097 97.5638H142.683V97.1648H143.697V96.1406H144.097V97.5638Z" fill="white"/>
<path d="M140.204 97.5764H137.722V97.1641H140.204V97.5764ZM135.227 97.5764H132.745V97.1641H135.227V97.5764ZM130.264 97.5764H127.782V97.1641H130.264V97.5764ZM125.3 97.5764H122.819V97.1641H125.3V97.5764ZM120.323 97.5764H117.842V97.1641H120.323V97.5764ZM115.36 97.5764H112.878V97.1641H115.36V97.5764Z" fill="white"/>
<path d="M110.396 97.5638H108.968V96.1406H109.369V97.1648H110.396V97.5638Z" fill="white"/>
<path d="M109.381 93.6781H109.021V91.1908H109.435L109.381 93.6781ZM109.381 88.7168H109.021V86.2428H109.435L109.381 88.7168ZM109.381 83.7688H109.021V81.2948H109.435L109.381 83.7688ZM109.381 78.8208H109.021V76.3468H109.435L109.381 78.8208ZM109.381 73.8595H109.021V71.3855H109.435L109.381 73.8595ZM109.381 68.9115H109.021V66.4375H109.435L109.381 68.9115Z" fill="white"/>
<path d="M109.369 63.9529H108.968V62.543H110.396V62.942H109.369V63.9529Z" fill="white"/>
<path d="M140.204 62.9553H137.722V62.543H140.204V62.9553ZM135.227 62.9553H132.745V62.543H135.227V62.9553ZM130.264 62.9553H127.782V62.543H130.264V62.9553ZM125.3 62.9553H122.819V62.543H125.3V62.9553ZM120.323 62.9553H117.842V62.543H120.323V62.9553ZM115.36 62.9553H112.878V62.543H115.36V62.9553Z" fill="white"/>
<path d="M144.097 63.9529H143.697V62.942H142.683V62.543H144.097V63.9529Z" fill="white"/>
<path d="M144.112 93.6781H143.712V91.1908H144.126L144.112 93.6781ZM144.112 88.7168H143.712V86.2428H144.126L144.112 88.7168ZM144.112 83.7688H143.712V81.2948H144.126L144.112 83.7688ZM144.112 78.8208H143.712V76.3468H144.126L144.112 78.8208ZM144.112 73.8595H143.712V71.3855H144.126L144.112 73.8595ZM144.112 68.9115H143.712V66.4375H144.126L144.112 68.9115Z" fill="white"/>
<path d="M144.097 154.56H142.683V154.161H143.697V153.137H144.097V154.56Z" fill="white"/>
<path d="M140.204 154.572H137.722V154.16H140.204V154.572ZM135.227 154.572H132.745V154.16H135.227V154.572ZM130.264 154.572H127.782V154.16H130.264V154.572ZM125.3 154.572H122.819V154.16H125.3V154.572ZM120.323 154.572H117.842V154.16H120.323V154.572ZM115.36 154.572H112.878V154.16H115.36V154.572Z" fill="white"/>
<path d="M110.396 154.56H108.968V153.137H109.369V154.161H110.396V154.56Z" fill="white"/>
<path d="M109.381 150.674H109.021V148.187H109.435L109.381 150.674ZM109.381 145.713H109.021V143.212H109.435L109.381 145.713ZM109.381 140.765H109.021V138.291H109.435L109.381 140.765ZM109.381 135.817H109.021V133.343H109.435L109.381 135.817ZM109.381 130.856H109.021V128.382H109.435L109.381 130.856ZM109.381 125.908H109.021V123.434H109.435L109.381 125.908Z" fill="white"/>
<path d="M109.369 120.947H108.968V119.523H110.396V119.936H109.369V120.947Z" fill="white"/>
<path d="M140.204 119.938H137.722V119.539H140.204V119.938ZM135.227 119.938H132.745V119.539H135.227V119.938ZM130.264 119.938H127.782V119.539H130.264V119.938ZM125.3 119.938H122.819V119.539H125.3V119.938ZM120.323 119.938H117.842V119.539H120.323V119.938ZM115.36 119.938H112.878V119.539H115.36V119.938Z" fill="white"/>
<path d="M144.097 120.947H143.697V119.936H142.683V119.523H144.097V120.947Z" fill="white"/>
<path d="M144.112 150.674H143.712V148.187H144.126L144.112 150.674ZM144.112 145.713H143.712V143.212H144.126L144.112 145.713ZM144.112 140.765H143.712V138.291H144.126L144.112 140.765ZM144.112 135.817H143.712V133.343H144.126L144.112 135.817ZM144.112 130.856H143.712V128.382H144.126L144.112 130.856ZM144.112 125.908H143.712V123.434H144.126L144.112 125.908Z" fill="white"/>
<path d="M144.097 211.552H142.683V211.153H143.697V210.129H144.097V211.552Z" fill="white"/>
<path d="M140.204 211.569H137.722V211.156H140.204V211.569ZM135.227 211.569H132.745V211.156H135.227V211.569ZM130.264 211.569H127.782V211.156H130.264V211.569ZM125.3 211.569H122.819V211.156H125.3V211.569ZM120.323 211.569H117.842V211.156H120.323V211.569ZM115.36 211.569H112.878V211.156H115.36V211.569Z" fill="white"/>
<path d="M110.396 211.552H108.968V210.129H109.369V211.153H110.396V211.552Z" fill="white"/>
<path d="M109.381 207.671H109.021V205.184H109.435L109.381 207.671ZM109.381 202.71H109.021V200.236H109.435L109.381 202.71ZM109.381 197.762H109.021V195.288H109.435L109.381 197.762ZM109.381 192.814H109.021V190.326H109.435L109.381 192.814ZM109.381 187.852H109.021V185.378H109.435L109.381 187.852ZM109.381 182.904H109.021V180.457H109.435L109.381 182.904Z" fill="white"/>
<path d="M109.369 177.943H108.968V176.52H110.396V176.932H109.369V177.943Z" fill="white"/>
<path d="M140.204 176.93H137.722V176.531H140.204V176.93ZM135.227 176.93H132.745V176.531H135.227V176.93ZM130.264 176.93H127.782V176.531H130.264V176.93ZM125.3 176.93H122.819V176.531H125.3V176.93ZM120.323 176.93H117.842V176.531H120.323V176.93ZM115.36 176.93H112.878V176.531H115.36V176.93Z" fill="white"/>
<path d="M144.097 177.943H143.697V176.932H142.683V176.52H144.097V177.943Z" fill="white"/>
<path d="M144.112 207.658H143.712V205.184H144.126L144.112 207.658ZM144.112 202.71H143.712V200.236H144.126L144.112 202.71ZM144.112 197.762H143.712V195.288H144.126L144.112 197.762ZM144.112 192.814H143.712V190.326H144.126L144.112 192.814ZM144.112 187.852H143.712V185.378H144.126L144.112 187.852ZM144.112 182.904H143.712V180.457H144.126L144.112 182.904Z" fill="white"/>
<path d="M148.448 107.352H105.913V108.03H148.448V107.352Z" fill="white"/>
<path d="M148.448 166.848H105.913V167.526H148.448V166.848Z" fill="white"/>
<path d="M327.932 180.055C328.108 180.388 328.181 180.766 328.142 181.14C328.102 181.514 327.952 181.868 327.711 182.157C327.47 182.447 327.148 182.658 326.786 182.765C326.424 182.872 326.038 182.869 325.678 182.757C325.317 182.646 324.998 182.43 324.761 182.137C324.523 181.845 324.378 181.489 324.344 181.114C324.31 180.739 324.388 180.363 324.568 180.032C324.748 179.702 325.023 179.432 325.357 179.257C325.805 179.023 326.328 178.975 326.811 179.125C327.293 179.274 327.697 179.609 327.932 180.055Z" fill="white"/>
<path d="M347.851 186.987L341.58 175.136C340.758 175.103 339.945 175.316 339.245 175.748C338.213 176.427 337.448 177.443 337.084 178.621C336.85 179.497 336.663 180.385 336.523 181.281C336.338 182.198 336.047 183.091 335.656 183.941C335.472 184.39 335.2 184.797 334.856 185.139C334.466 185.457 334.01 185.684 333.521 185.804C332.425 186.041 331.315 186.219 330.199 186.336C329.077 186.461 328.02 186.925 327.17 187.666C326.281 188.713 325.778 190.032 325.743 191.403L328.745 197.083L347.851 186.987Z" fill="white"/>
<path d="M356.55 172.182C356.483 172.552 356.308 172.894 356.047 173.165C355.786 173.436 355.45 173.624 355.081 173.705C354.713 173.786 354.329 173.756 353.978 173.619C353.626 173.482 353.323 173.245 353.107 172.937C352.891 172.629 352.772 172.264 352.764 171.888C352.756 171.512 352.86 171.142 353.062 170.825C353.265 170.508 353.558 170.258 353.903 170.106C354.248 169.955 354.63 169.909 355.002 169.974C355.249 170.017 355.485 170.109 355.697 170.243C355.909 170.378 356.092 170.553 356.235 170.758C356.379 170.963 356.481 171.194 356.535 171.439C356.589 171.683 356.594 171.936 356.55 172.182Z" fill="white"/>
<path d="M368.025 189.834L370.387 176.613C369.752 176.088 368.978 175.76 368.159 175.668C366.927 175.573 365.702 175.907 364.69 176.613C363.963 177.162 363.268 177.753 362.608 178.382C361.902 178.978 361.133 179.496 360.313 179.925C359.902 180.159 359.449 180.312 358.979 180.377C358.469 180.393 357.963 180.293 357.498 180.084C356.487 179.6 355.503 179.063 354.549 178.475C353.592 177.881 352.473 177.597 351.347 177.663C350.001 177.945 348.794 178.683 347.931 179.752L346.797 186.056L368.025 189.834Z" fill="white"/>
<path d="M341.488 186.056C341.841 180.366 342.881 174.739 344.583 169.297C344.229 174.987 343.19 180.614 341.488 186.056Z" fill="#121B46"/>
<path d="M373.91 187.599C374.79 180.19 376.071 172.462 377.365 165.107L377.765 165.679C371.254 164.495 364.743 163.284 358.299 161.781C364.97 162.566 371.721 163.683 378.406 164.787C377.072 172.316 375.631 180.163 373.91 187.599Z" fill="#121B46"/>
<path d="M355.95 186.52H316.817V227.075H355.95V186.52Z" fill="#FDB32C"/>
<path d="M372.615 222.874L355.723 227.09V186.535H372.615V222.874Z" fill="#F0A824"/>
<path d="M316.818 186.535L309.933 196.059H349.053L355.724 186.535H316.818Z" fill="#E69E19"/>
<path d="M355.723 186.535L363.289 194.955H381.741L372.628 186.535H355.723Z" fill="#E69E19"/>
<path d="M355.444 187.199C356.111 200.186 356.111 213.198 355.444 226.185C354.764 213.198 354.764 200.186 355.444 187.199Z" fill="#121B46"/>
<path d="M329.825 211.593C331.491 208.955 333.73 206.723 336.377 205.062C334.707 207.698 332.469 209.929 329.825 211.593Z" fill="#121B46"/>
<path d="M333.254 211.128C334.143 209.277 335.64 207.785 337.497 206.898C336.612 208.752 335.113 210.246 333.254 211.128Z" fill="#121B46"/>
<path d="M363.675 208.388C363.846 207.741 364.181 207.149 364.648 206.669C365.116 206.189 365.7 205.837 366.344 205.648C366.171 206.294 365.835 206.886 365.368 207.365C364.901 207.845 364.318 208.197 363.675 208.388Z" fill="#121B46"/>
<path d="M365.957 209.718C365.973 209.239 366.171 208.784 366.51 208.443C366.849 208.103 367.304 207.903 367.785 207.883C367.775 208.364 367.579 208.823 367.239 209.165C366.899 209.507 366.44 209.705 365.957 209.718Z" fill="#121B46"/>
<path d="M261 160C260.109 160.004 259.231 160.209 258.43 160.6L249.83 152H243V156H248.172L255.602 163.43C255.211 164.231 255.005 165.109 255 166C255 167.187 255.352 168.347 256.011 169.333C256.67 170.32 257.608 171.089 258.704 171.543C259.8 171.997 261.007 172.116 262.171 171.885C263.334 171.653 264.404 171.082 265.243 170.243C266.082 169.404 266.653 168.334 266.885 167.171C267.116 166.007 266.997 164.8 266.543 163.704C266.089 162.608 265.32 161.67 264.333 161.011C263.347 160.352 262.187 160 261 160ZM261 168C260.604 168 260.218 167.883 259.889 167.663C259.56 167.443 259.304 167.131 259.152 166.765C259.001 166.4 258.961 165.998 259.038 165.61C259.116 165.222 259.306 164.865 259.586 164.586C259.865 164.306 260.222 164.116 260.61 164.038C260.998 163.961 261.4 164.001 261.765 164.152C262.131 164.304 262.443 164.56 262.663 164.889C262.883 165.218 263 165.604 263 166C263 166.53 262.789 167.039 262.414 167.414C262.039 167.789 261.53 168 261 168ZM261 138C259.763 138.004 258.558 138.39 257.549 139.106C256.541 139.823 255.779 140.833 255.368 142H243V146H255.368C255.736 147.034 256.382 147.948 257.234 148.64C258.087 149.332 259.113 149.777 260.201 149.925C261.289 150.073 262.397 149.92 263.403 149.481C264.41 149.043 265.277 148.336 265.909 147.438C266.541 146.54 266.914 145.486 266.987 144.39C267.061 143.295 266.832 142.2 266.325 141.226C265.818 140.252 265.054 139.436 264.115 138.867C263.175 138.298 262.098 137.998 261 138ZM261 146C260.604 146 260.218 145.883 259.889 145.663C259.56 145.443 259.304 145.131 259.152 144.765C259.001 144.4 258.961 143.998 259.038 143.61C259.116 143.222 259.306 142.865 259.586 142.586C259.865 142.306 260.222 142.116 260.61 142.038C260.998 141.961 261.4 142.001 261.765 142.152C262.131 142.304 262.443 142.56 262.663 142.889C262.883 143.218 263 143.604 263 144C263 144.53 262.789 145.039 262.414 145.414C262.039 145.789 261.53 146 261 146ZM261 116C259.409 116.002 257.884 116.634 256.759 117.759C255.634 118.884 255.002 120.409 255 122C255.007 122.958 255.246 123.9 255.696 124.746L248.192 132H243V136H249.808L258.608 127.496C259.425 127.852 260.312 128.022 261.203 127.993C262.095 127.963 262.968 127.735 263.76 127.326C264.553 126.916 265.243 126.335 265.783 125.625C266.322 124.915 266.696 124.093 266.878 123.22C267.059 122.347 267.044 121.444 266.833 120.578C266.622 119.711 266.22 118.903 265.657 118.211C265.094 117.52 264.384 116.962 263.578 116.58C262.773 116.197 261.892 115.999 261 116ZM261 124C260.604 124 260.218 123.883 259.889 123.663C259.56 123.443 259.304 123.131 259.152 122.765C259.001 122.4 258.961 121.998 259.038 121.61C259.116 121.222 259.306 120.865 259.586 120.586C259.865 120.306 260.222 120.116 260.61 120.038C260.998 119.961 261.4 120.001 261.765 120.152C262.131 120.304 262.443 120.56 262.663 120.889C262.883 121.218 263 121.604 263 122C263 122.53 262.789 123.039 262.414 123.414C262.039 123.789 261.53 124 261 124Z" fill="#F5E6E6"/>
<path d="M243 124H247V120H243C241.86 120.004 240.735 120.253 239.699 120.729C238.664 121.206 237.744 121.9 237 122.764C236.256 121.9 235.336 121.206 234.301 120.729C233.265 120.253 232.14 120.004 231 120H229C224.228 120.005 219.652 121.903 216.278 125.278C212.903 128.652 211.005 133.228 211 138V150C211.005 154.772 212.903 159.348 216.278 162.722C219.652 166.097 224.228 167.995 229 168H231C232.14 167.996 233.265 167.747 234.301 167.271C235.336 166.794 236.256 166.1 237 165.236C237.744 166.1 238.664 166.794 239.699 167.271C240.735 167.747 241.86 167.996 243 168H247V164H243C241.939 163.999 240.923 163.577 240.173 162.827C239.423 162.077 239.001 161.061 239 160V128C239.001 126.939 239.423 125.923 240.173 125.173C240.923 124.423 241.939 124.001 243 124ZM231 164H229C225.637 163.994 222.388 162.778 219.847 160.575C217.306 158.372 215.642 155.328 215.16 152H219V148H215V140H221C222.591 139.998 224.116 139.366 225.241 138.241C226.366 137.116 226.998 135.591 227 134V130H223V134C223 134.53 222.789 135.039 222.414 135.414C222.039 135.789 221.53 136 221 136H215.16C215.642 132.672 217.306 129.628 219.847 127.425C222.388 125.222 225.637 124.006 229 124H231C232.061 124.001 233.077 124.423 233.827 125.173C234.577 125.923 234.999 126.939 235 128V136H231V140H235V148H231C229.409 148.002 227.884 148.634 226.759 149.759C225.634 150.884 225.002 152.409 225 154V158H229V154C229 153.47 229.211 152.961 229.586 152.586C229.961 152.211 230.47 152 231 152H235V160C234.999 161.061 234.577 162.077 233.827 162.827C233.077 163.577 232.061 163.999 231 164Z" fill="#F5E6E6"/>
</g>
<defs>
<clipPath id="clip0_1373_24153">
<rect width="448" height="227.09" fill="white"/>
</clipPath>
</defs>
</svg>
