<svg width="913" height="802" viewBox="0 0 913 802" fill="none" xmlns="http://www.w3.org/2000/svg">
<path d="M934.4 459.82L935.399 380.939C935.767 351.88 941.376 322.897 939.133 293.807C935.829 251.224 898.794 229.679 869.98 203.14C837.493 173.096 806.298 141.409 779.789 105.895C758.275 77.0354 739.02 44.9331 708.823 25.2783C639.055 -20.1628 515.794 -3.91954 472.981 71.3803C449.515 112.641 421.316 149.631 385.264 181.072C366.977 193.581 349.827 207.75 329.512 217.339C327.76 216.985 325.716 217.17 324.902 215.049C340.346 200.988 357.849 188.771 371.003 167.764C357.081 172.974 346.324 176.723 335.797 180.98C296.779 196.762 262.633 218.722 239.459 254.128C209.201 300.246 207.096 351.081 213.857 403.329C218.375 438.305 229.102 472.144 234.542 506.951C234.542 516.745 234.542 526.529 234.542 536.303L231.96 552.162L219.927 576.673C210.031 589.427 197.43 598.863 182.831 606.147C157.137 618.963 129.322 625.863 101.784 633.147C22.3039 654.139 0.528375 721.156 0.0366211 777.462C29.0501 715.194 55.359 683.322 83.6194 676.038C59.7847 697.967 43.2495 724.322 32.2619 754.273C26.6374 769.64 6.81363 806.153 35.7503 805.984C214.365 804.908 392.84 802.91 571.424 804.447L870.764 806.982C889.911 807.136 913.162 810.625 923.981 790.755C930.128 779.383 930.466 765.859 930.635 752.92C930.635 671.059 932.694 589.136 933.708 507.274L934.4 459.82Z" fill="black"/>
</svg>
